<?xml version="1.0" encoding="UTF-8"?>
<svg width="120" height="52" viewBox="0 0 120 52" xmlns="http://www.w3.org/2000/svg">
    <defs>
        <linearGradient id="gradient1" x1="0%" y1="0%" x2="100%" y2="0%">
            <stop offset="0%" style="stop-color:#fbb040"/>
            <stop offset="100%" style="stop-color:#f15a29"/>
        </linearGradient>
        <linearGradient id="gradient2" x1="0%" y1="0%" x2="100%" y2="0%">
            <stop offset="0%" style="stop-color:#ed7340"/>
            <stop offset="51.81%" style="stop-color:#f4aa46"/>
            <stop offset="100%" style="stop-color:#f29746"/>
        </linearGradient>
    </defs>
    <path d="M0 26c0 14.4 11.7 26.1 26.1 26.1h67.7c14.4 0 26.1-11.7 26.1-26.1 0-14.4-11.7-26.1-26.1-26.1H26.1C11.7 0 0 11.6 0 26z" fill="url(#gradient1)"/>
    <path d="M4.5 26c0 12 9.7 21.6 21.6 21.6h67.7c12 0 21.6-9.7 21.6-21.6 0-12-9.7-21.6-21.6-21.6H26.1C14.2 4.4 4.5 14.1 4.5 26z" fill="url(#gradient2)"/>
    <text x="60" y="32" font-family="Arial, sans-serif" font-size="24" fill="#2c2626" text-anchor="middle">生吧</text>
</svg> 