<?xml version="1.0" encoding="UTF-8"?>
<svg width="32" height="32" viewBox="0 0 32 32" xmlns="http://www.w3.org/2000/svg">
    <circle cx="16" cy="16" r="15" fill="#ffb6c1" stroke="#000000" stroke-width="2"/>
    <path d="M12 8c-0.6-0.6-1.2-1-2.2-1.3-0.1-0.1-1.1-0.2-1.6-0.4 0.5 0.8 1.4 2.6 1.8 2.9 0.6 0.5 1.5-0.5 2.1-1.1z" fill="#131010"/>
    <path d="M13.3 7.2c0.1 0 0.2 0.1 0.3 0.2 0.5 0.5 0 1.1 0 1.1l-0.2 0.2c-1.2 1.2-2.6 2.9-4.4 1.7-0.7-0.5-3-4.4-2.4-5.2 1.5-1.8 5.4 0.9 6.7 2z" fill="#131010"/>
    <path d="M10 8.6c-0.3-0.3-1.3-2.2-1.8-3 0.5 0.2 1.5 0.4 1.6 0.4 1 0.3 1.6 0.8 2.3 1.4-0.6 0.7-1.5 1.7-2.1 1.2z" fill="#ff69b4"/>
    <path d="M33 7.4c0.1 0 0.2 0 0.2 0 0.7-0.3 1.4-0.7 2.2-0.9 0.3-0.1 1.7-0.4 1.9-0.4 3.9 0-1.2 8.4-4.2 4.3-0.4-0.6-0.7-1.3-0.8-2l0-0.3c0 0 0-0.8 0.8-0.8z" fill="#131010"/>
    <path d="M33.9 8.8c0.2 0.6 0.6 1.4 1.1 1.2 1-0.2 1.5-1.1 2.1-1.8 0.2-0.3 0.9-0.9 0.6-0.8-1.3 0.3-2.6 0.8-3.8 1.4z" fill="#131010"/>
    <path d="M37.7 8.4c0.3-0.1-0.4 0.5-0.6 0.8-0.6 0.7-1.2 1.6-2.2 1.9-0.5 0.1-0.9-0.7-1.1-1.3 1.2-0.5 2.6-1.1 3.9-1.4z" fill="#ff69b4"/>
    <circle cx="17.9" cy="13.6" r="4.5" fill="#ffffff"/>
    <circle cx="20.9" cy="20.6" r="1.2" fill="#000000"/>
    <circle cx="33.1" cy="17.7" r="4.5" fill="#ffffff"/>
    <circle cx="26.9" cy="18.9" r="1.2" fill="#000000"/>
</svg> 