<?xml version="1.0" encoding="UTF-8" standalone="no"?>
<svg
   version="1.1"
   id="svg1"
   xmlns="http://www.w3.org/2000/svg"
   xmlns:svg="http://www.w3.org/2000/svg">
  <defs
     id="defs1" />
  <g
     id="sprite-template">
    <path
       style="fill:#0000ff;stroke:#000000;stroke-width:2"
       d="M 5.5673167,8.9411756 C 17.331503,11.46651 27.181949,7.1981385 34.595237,3.6784866 24.412928,11.621994 18.395379,14.988234 6.710685,16.313789"
       id="tail" />
    <path
       id="tailtip"
       style="fill:#0000ff;stroke:#000000;stroke-width:2"
       d="M 36.651297,4.4896989 A 3.346251,3.0420463 0 0 1 33.305046,7.5317452 3.346251,3.0420463 0 0 1 29.958795,4.4896989 3.346251,3.0420463 0 0 1 33.305046,1.4476526 3.346251,3.0420463 0 0 1 36.651297,4.4896989 Z" />
    <circle
       cx="0"
       cy="0"
       r="20"
       fill="blue"
       stroke="black"
       stroke-width="2"
       id="face" />
    <circle
       cx="-16"
       cy="-16"
       r="10"
       fill="white"
       stroke="black"
       stroke-width="2"
       id="left-eye" />
    <circle
       cx="-16"
       cy="-16"
       r="5"
       fill="black"
       stroke="black"
       stroke-width="2"
       id="left-eyeball" />
    <circle
       cx="16"
       cy="-16"
       r="10"
       fill="white"
       stroke="black"
       stroke-width="2"
       id="right-eye" />
    <circle
       cx="16"
       cy="-16"
       r="5"
       fill="black"
       stroke="black"
       stroke-width="2"
       id="right-eyeball" />
    <text
       x="0"
       y="0"
       dominant-baseline="middle"
       text-anchor="middle"
       id="alleles-text" />
  </g>
</svg>
