<svg version="1.1" xmlns="http://www.w3.org/2000/svg" xmlns:xlink="http://www.w3.org/1999/xlink" width="32.74306" height="32.125" viewBox="0,0,32.74306,32.125"><g transform="translate(-223.19443,-163.8125)"><g data-paper-data="{&quot;isPaintingLayer&quot;:true}" fill-rule="nonzero" stroke-linecap="butt" stroke-linejoin="miter" stroke-miterlimit="10" stroke-dasharray="" stroke-dashoffset="0" style="mix-blend-mode: normal"><path d="M224.8125,179.875c0,-8.31879 6.74371,-15.0625 15.0625,-15.0625c8.31879,0 15.0625,6.74371 15.0625,15.0625c0,8.31879 -6.74371,15.0625 -15.0625,15.0625c-8.31879,0 -15.0625,-6.74371 -15.0625,-15.0625z" fill="#f0e199" stroke="#000000" stroke-width="2"/><path d="M228.66428,168.43595c-0.65022,-0.6225 -1.23942,-1.07248 -2.2198,-1.35753c-0.11358,-0.03302 -1.10641,-0.17046 -1.59426,-0.40384c0.46403,0.77229 1.44062,2.60059 1.75213,2.88239c0.5945,0.53779 1.50301,-0.47021 2.06193,-1.12102zM229.96715,167.62324c0.10286,0.03365 0.21011,0.09752 0.31735,0.20477c0.53033,0.53033 0,1.06066 0,1.06066l-0.2,0.2c-1.17665,1.17665 -2.55254,2.92979 -4.37851,1.67103c-0.66925,-0.46136 -3.04971,-4.36491 -2.4005,-5.1778c1.45872,-1.82652 5.35569,0.868 6.66166,2.04135z" fill="#131010" stroke="none" stroke-width="0.5"/><path d="M226.59671,169.60666c-0.31151,-0.2818 -1.32159,-2.19091 -1.78562,-2.9632c0.48785,0.23338 1.50628,0.35381 1.61986,0.38683c0.98038,0.28505 1.6327,0.78951 2.28292,1.41201c-0.55892,0.65082 -1.52267,1.70215 -2.11716,1.16436z" data-paper-data="{&quot;noHover&quot;:false,&quot;origItem&quot;:[&quot;Path&quot;,{&quot;applyMatrix&quot;:true,&quot;segments&quot;:[[[228.66428,168.43595],[-0.55892,0.65082],[-0.65022,-0.6225]],[[226.44448,167.07842],[0.98038,0.28505],[-0.11358,-0.03302]],[[224.85022,166.67459],[0.48785,0.23338],[0.46403,0.77229]],[[226.60235,169.55697],[-0.31151,-0.2818],[0.5945,0.53779]]],&quot;closed&quot;:true}]}" fill="#cb8686" stroke="none" stroke-width="0.5"/><path d="M249.55417,167.40833c0.0806,0 0.15254,0.00866 0.21675,0.02412c0.71117,-0.31614 1.41796,-0.65813 2.16027,-0.89021c0.29287,-0.09157 1.7305,-0.42786 1.94908,-0.43026c3.93887,-0.04334 -1.19809,8.37521 -4.23359,4.28619c-0.42563,-0.57336 -0.66257,-1.2817 -0.82465,-1.97714l-0.01786,-0.2627c0,0 0,-0.75 0.75,-0.75zM250.46148,168.77173c0.19789,0.62496 0.55212,1.37203 1.10105,1.24222c0.97844,-0.23138 1.51347,-1.07515 2.09068,-1.80434c0.20573,-0.2599 0.92286,-0.87071 0.60077,-0.79243c-1.26356,0.30707 -2.55296,0.82741 -3.79249,1.35455z" fill="#131010" stroke="none" stroke-width="0.5"/><path d="M254.2949,167.38845c0.3221,-0.07828 -0.38964,0.54243 -0.59537,0.80233c-0.57721,0.72919 -1.18569,1.63378 -2.16413,1.86517c-0.54893,0.12981 -0.92601,-0.65791 -1.1239,-1.28287c1.23953,-0.52714 2.61984,-1.07755 3.8834,-1.38463z" data-paper-data="{&quot;noHover&quot;:false,&quot;origItem&quot;:[&quot;Path&quot;,{&quot;applyMatrix&quot;:true,&quot;segments&quot;:[[[250.46148,168.77173],[1.23953,-0.52714],[0.19789,0.62496]],[[251.56253,170.01395],[-0.54893,0.12981],[0.97844,-0.23138]],[[253.65321,168.20961],[-0.57721,0.72919],[0.20573,-0.2599]],[[254.25398,167.41718],[0.3221,-0.07828],[-1.26356,0.30707]]],&quot;closed&quot;:true}]}" fill="#cb8686" stroke="none" stroke-width="0.5"/><path d="M233.91479,170.09787c2.44442,0 4.42599,2.02591 4.42599,4.525c0,2.49909 -1.98157,4.525 -4.42599,4.525c-2.44442,0 -4.42599,-2.02591 -4.42599,-4.525c0,-2.49909 1.98157,-4.525 4.42599,-4.525z" fill="#ffffff" stroke="none" stroke-width="0"/><path d="M236.89193,177.1062c0,0.69036 -0.53726,1.25 -1.2,1.25c-0.66274,0 -1.2,-0.55964 -1.2,-1.25c0,-0.69036 0.53726,-1.25 1.2,-1.25c0.66274,0 1.2,0.55964 1.2,1.25z" fill="#000000" stroke="none" stroke-width="0"/><path d="M250.09135,174.24996c0,2.49909 -1.98157,4.525 -4.42599,4.525c-2.44442,0 -4.42599,-2.02591 -4.42599,-4.525c0,-2.49909 1.98157,-4.525 4.42599,-4.525c2.44442,0 4.42599,2.02591 4.42599,4.525z" data-paper-data="{&quot;index&quot;:null}" fill="#ffffff" stroke="none" stroke-width="0"/><path d="M243.88822,175.48329c0.66274,0 1.2,0.55964 1.2,1.25c0,0.69036 -0.53726,1.25 -1.2,1.25c-0.66274,0 -1.2,-0.55964 -1.2,-1.25c0,-0.69036 0.53726,-1.25 1.2,-1.25z" data-paper-data="{&quot;index&quot;:null}" fill="#000000" stroke="none" stroke-width="0"/></g></g></svg>