<svg version="1.1" xmlns="http://www.w3.org/2000/svg" xmlns:xlink="http://www.w3.org/1999/xlink" width="38.0657" height="32.125" viewBox="0,0,38.0657,32.125"><g transform="translate(-220.802,-163.8125)"><g data-paper-data="{&quot;isPaintingLayer&quot;:true}" fill-rule="nonzero" stroke-linecap="butt" stroke-linejoin="miter" stroke-miterlimit="10" stroke-dasharray="" stroke-dashoffset="0" style="mix-blend-mode: normal"><path d="M224.8125,179.875c0,-8.31879 6.74371,-15.0625 15.0625,-15.0625c8.31879,0 15.0625,6.74371 15.0625,15.0625c0,8.31879 -6.74371,15.0625 -15.0625,15.0625c-8.31879,0 -15.0625,-6.74371 -15.0625,-15.0625z" fill="#9bffe0" stroke="#000000" stroke-width="2"/><path d="M233.77703,171.2c2.44442,0 4.42599,2.02591 4.42599,4.525c0,2.49909 -1.98157,4.525 -4.42599,4.525c-2.44442,0 -4.42599,-2.02591 -4.42599,-4.525c0,-2.49909 1.98157,-4.525 4.42599,-4.525z" fill="#ffffff" stroke="none" stroke-width="0"/><path d="M227.85305,169.88656c-0.54522,-0.24774 -1.13913,-0.44751 -1.6862,-0.602c-0.47158,-0.13317 -0.97048,-0.1432 -1.45928,-0.17768c-0.45564,-0.03214 -2.06696,0.0168 -2.40282,0.22461c-0.3124,0.1933 0.54889,0.49677 0.76288,0.79536c0.7866,1.09757 2.33931,3.04448 3.73272,1.52572c0.4633,-0.54878 0.74368,-1.136 1.0527,-1.76602zM229.20713,168.89648c0.23103,0.12071 0.33764,0.28228 0.37922,0.44016c0.05252,0.15308 0.05388,0.34461 -0.06811,0.57059l-0.19326,0.38651c-0.43168,0.86335 -0.80046,1.6234 -1.417,2.37034c-2.26677,2.15869 -4.63138,0.38722 -6.06728,-1.67428c-0.52166,-0.74894 -1.44889,-1.2067 -0.83712,-2.40464c1.16574,-2.2827 6.72156,-0.50877 8.20354,0.31132z" fill="#251717" stroke="none" stroke-width="0.5"/><path d="M226.84381,171.6773c-1.39341,1.51876 -3.03789,-0.46575 -3.8245,-1.56332c-0.214,-0.2986 -1.072,-0.61092 -0.7596,-0.80422c0.33586,-0.20782 1.98155,-0.28387 2.43719,-0.25173c0.48881,0.03448 1.03005,0.05468 1.50163,0.18785c0.54707,0.15449 1.15752,0.37976 1.70275,0.62749c-0.30901,0.63002 -0.59417,1.25515 -1.05747,1.80393z" data-paper-data="{&quot;noHover&quot;:false,&quot;origItem&quot;:[&quot;Path&quot;,{&quot;applyMatrix&quot;:true,&quot;segments&quot;:[[[227.85305,169.88656],[-0.30901,0.63002],[-0.54522,-0.24774]],[[226.16685,169.28456],[0.54707,0.15449],[-0.47158,-0.13317]],[[224.70756,169.10688],[0.48881,0.03448],[-0.45564,-0.03214]],[[222.30474,169.3315],[0.33586,-0.20782],[-0.3124,0.1933]],[[223.06763,170.12686],[-0.214,-0.2986],[0.7866,1.09757]],[[226.80035,171.65258],[-1.39341,1.51876],[0.4633,-0.54878]]],&quot;closed&quot;:true}]}" fill="#995f5f" stroke="none" stroke-width="0.5"/><path d="M250.52384,169.528c0.19863,-0.19863 0.39726,-0.24847 0.56803,-0.23311c0.10917,-0.17529 0.2648,-0.27256 0.2648,-0.27256c1.58631,-0.96931 3.83281,-1.28966 5.63693,-0.67475c1.16874,0.39835 2.46642,1.38486 1.58208,2.83053c-0.68709,1.12322 -4.72341,2.89632 -5.95693,2.25104c-0.81191,-0.42472 -1.59119,-1.97446 -1.94995,-2.76622l-0.14497,-0.07427c0,0 -0.53033,-0.53033 0,-1.06066zM252.14705,170.29711c0.68284,1.51313 1.2859,2.16658 2.93501,1.21005c0.25658,-0.14882 2.28767,-1.27541 2.2627,-1.30542c-1.05207,-1.264 -4.07771,-0.62522 -5.1931,0.0926c0,0 -0.00157,0.00098 -0.00461,0.00277z" fill="#251717" stroke="none" stroke-width="0.5"/><path d="M252.10232,170.28627c1.11538,-0.71781 4.23942,-1.35828 5.29148,-0.09428c0.02497,0.03 -2.03557,1.21234 -2.29215,1.36116c-1.64911,0.95653 -2.32111,0.24909 -3.00396,-1.26404c0.00304,-0.00179 0.00462,-0.00284 0.00462,-0.00284z" data-paper-data="{&quot;noHover&quot;:false,&quot;origItem&quot;:[&quot;Path&quot;,{&quot;applyMatrix&quot;:true,&quot;segments&quot;:[[[252.14705,170.29711],[0.00304,-0.00179],[0.68284,1.51313]],[[255.08206,171.50715],[-1.64911,0.95653],[0.25658,-0.14882]],[[257.34476,170.20174],[0.02497,0.03],[-1.05207,-1.264]],[[252.15167,170.29433],[1.11538,-0.71781],[0,0]]],&quot;closed&quot;:true}]}" fill="#995f5f" stroke="none" stroke-width="0.5"/><path d="M236.75417,178.20833c0,0.69036 -0.53726,1.25 -1.2,1.25c-0.66274,0 -1.2,-0.55964 -1.2,-1.25c0,-0.69036 0.53726,-1.25 1.2,-1.25c0.66274,0 1.2,0.55964 1.2,1.25z" fill="#000000" stroke="none" stroke-width="0"/><path d="M249.40252,175.62763c0,2.49909 -1.98157,4.525 -4.42599,4.525c-2.44442,0 -4.42599,-2.02591 -4.42599,-4.525c0,-2.49909 1.98157,-4.525 4.42599,-4.525c2.44442,0 4.42599,2.02591 4.42599,4.525z" data-paper-data="{&quot;index&quot;:null}" fill="#ffffff" stroke="none" stroke-width="0"/><path d="M243.19939,176.86096c0.66274,0 1.2,0.55964 1.2,1.25c0,0.69036 -0.53726,1.25 -1.2,1.25c-0.66274,0 -1.2,-0.55964 -1.2,-1.25c0,-0.69036 0.53726,-1.25 1.2,-1.25z" data-paper-data="{&quot;index&quot;:null}" fill="#000000" stroke="none" stroke-width="0"/></g></g></svg>