<?xml version="1.0" encoding="UTF-8" standalone="no"?>
<svg
   version="1.0"
   width="512.000000pt"
   height="512.000000pt"
   viewBox="0 0 512.000000 512.000000"
   preserveAspectRatio="xMidYMid meet"
   id="svg59"
   sodipodi:docname="goldenfish.svg"
   inkscape:version="1.4 (86a8ad7, 2024-10-11)"
   xmlns:inkscape="http://www.inkscape.org/namespaces/inkscape"
   xmlns:sodipodi="http://sodipodi.sourceforge.net/DTD/sodipodi-0.dtd"
   xmlns="http://www.w3.org/2000/svg"
   xmlns:svg="http://www.w3.org/2000/svg">
  <defs
     id="defs59">
    <inkscape:path-effect
       effect="fill_between_many"
       method="originald"
       linkedpaths="#path1-0,0,1|"
       id="path-effect86" />
  </defs>
  <sodipodi:namedview
     id="namedview59"
     pagecolor="#ffffff"
     bordercolor="#000000"
     borderopacity="0.25"
     inkscape:showpageshadow="2"
     inkscape:pageopacity="0.0"
     inkscape:pagecheckerboard="0"
     inkscape:deskcolor="#d1d1d1"
     inkscape:document-units="pt"
     inkscape:zoom="0.78824452"
     inkscape:cx="233.4301"
     inkscape:cy="218.84072"
     inkscape:window-width="1920"
     inkscape:window-height="974"
     inkscape:window-x="-11"
     inkscape:window-y="-11"
     inkscape:window-maximized="1"
     inkscape:current-layer="svg59" />
  <metadata
     id="metadata1">
Created by potrace 1.16, written by Peter Selinger 2001-2019
</metadata>
  <g
     transform="matrix(0.1,0,0,-0.1,-541.39292,508.19407)"
     fill="#000000"
     stroke="none"
     id="g59">
    <path
       d="m 2630,4205 c -52,-24 -101,-44 -107,-45 -18,0 -16,31 3,58 14,20 14,22 -2,22 -22,0 -100,-59 -146,-110 -38,-42 -58,-45 -58,-9 0,10 -4,19 -8,19 -11,0 -78,-72 -140,-150 -29,-36 -66,-78 -83,-95 -56,-56 -138,-264 -161,-409 l -12,-74 -108,-47 c -118,-52 -407,-203 -564,-296 -55,-32 -112,-59 -125,-59 -44,0 -127,-30 -159,-57 -42,-35 -70,-93 -70,-147 0,-48 -23,-76 -65,-76 -38,-1 -104,-39 -125,-72 -23,-39 -26,-98 -6,-136 18,-33 90,-103 132,-129 l 31,-18 -76,-1 c -90,0 -134,-19 -158,-68 -22,-47 -10,-82 46,-137 41,-39 68,-53 192,-99 181,-66 205,-79 254,-130 124,-129 298,-254 470,-336 l 114,-55 -35,-49 c -100,-139 -109,-347 -23,-519 35,-71 89,-139 89,-114 0,6 -9,33 -21,60 -25,56 -40,103 -33,103 3,0 35,-16 73,-35 113,-59 156,-44 171,62 9,70 1,132 -35,244 -14,46 -32,110 -40,142 -12,53 -12,57 3,53 9,-3 29,-8 43,-11 22,-6 28,-15 39,-63 19,-88 66,-192 130,-289 78,-119 182,-214 135,-124 -16,32 -13,51 7,51 6,0 40,-25 76,-56 36,-30 87,-66 113,-80 159,-80 368,-65 481,35 37,34 43,43 42,78 -2,49 -20,84 -82,159 -27,32 -84,107 -126,166 -42,59 -100,133 -128,164 l -52,56 -65,-6 c -72,-8 -73,-7 -16,24 93,52 191,147 234,228 23,44 167,19 187,-33 7,-17 -49,-98 -125,-177 -49,-53 -52,-58 -30,-58 22,-1 22,-3 -13,-31 -21,-17 -38,-34 -38,-39 0,-8 276,70 336,95 20,8 44,15 53,15 10,0 34,-31 60,-78 74,-130 159,-230 183,-216 5,3 6,57 2,120 l -7,114 49,-15 c 27,-9 63,-18 79,-22 20,-4 70,-44 150,-122 127,-123 210,-184 340,-249 77,-38 270,-112 294,-112 6,0 11,11 11,24 0,49 -29,108 -101,205 -15,20 -25,54 -31,97 -11,95 -42,158 -203,407 -47,73 -77,87 -225,110 -52,8 -103,18 -112,22 -31,12 -50,-45 -49,-151 0,-79 4,-104 24,-148 36,-77 68,-121 145,-199 119,-121 354,-258 439,-256 20,0 12,5 -27,15 -154,40 -347,174 -456,316 -78,101 -65,106 30,12 88,-88 180,-157 299,-224 32,-18 61,-30 64,-26 4,3 1,6 -5,6 -7,0 -20,8 -30,18 -10,9 -36,26 -57,37 -99,51 -277,202 -334,285 -19,27 -10,21 40,-26 90,-85 164,-138 239,-173 99,-46 136,-48 43,-2 -86,41 -176,105 -228,161 -26,28 -21,26 34,-14 73,-53 174,-104 223,-111 28,-5 26,-3 -16,15 -73,31 -257,156 -306,208 -3,3 29,-13 70,-36 77,-42 214,-93 247,-91 10,0 -5,8 -32,18 -65,24 -132,58 -141,73 -5,8 -2,9 11,4 11,-4 40,-9 65,-12 41,-4 39,-3 -20,14 -73,21 -140,55 -213,108 -58,42 -56,54 4,24 68,-35 167,-70 197,-69 19,0 11,5 -29,18 -49,16 -229,106 -229,115 0,2 37,-12 83,-30 53,-22 98,-33 127,-33 l 45,1 -55,13 c -61,15 -155,53 -148,60 2,3 20,0 39,-5 18,-6 45,-10 59,-9 23,0 22,2 -10,15 l -35,14 55,-5 c 76,-8 119,-39 160,-116 18,-35 48,-84 66,-109 56,-80 104,-186 104,-232 0,-71 18,-114 70,-171 49,-53 76,-102 62,-111 -11,-6 -133,38 -218,78 -124,59 -212,124 -351,259 -116,114 -132,134 -138,171 -10,55 -44,164 -53,170 -5,3 -1,-25 9,-62 9,-37 19,-87 23,-111 l 7,-43 -37,7 c -56,10 -166,53 -194,76 l -25,20 29,22 c 204,153 418,348 565,514 40,46 83,86 96,89 61,15 126,-66 268,-334 108,-204 177,-304 286,-413 114,-113 187,-151 307,-157 81,-4 114,4 114,29 0,5 -33,45 -74,89 -117,125 -138,227 -62,310 42,47 45,76 15,152 -20,51 -28,146 -14,169 4,6 -1,51 -11,100 l -18,89 22,28 c 94,115 105,146 78,215 -9,23 -44,76 -77,117 -76,92 -95,134 -105,228 -5,57 -14,85 -41,129 -44,73 -48,93 -33,163 11,50 10,65 -5,110 -12,38 -16,68 -11,106 5,41 1,65 -15,105 -18,46 -19,59 -8,101 15,63 73,141 188,250 102,98 115,128 61,147 -38,13 -100,2 -192,-32 -125,-47 -230,-134 -313,-258 -67,-100 -106,-192 -165,-383 -61,-200 -80,-251 -114,-310 -30,-52 -89,-106 -115,-106 -23,0 -165,155 -156,170 3,5 14,10 23,10 9,0 41,11 69,25 73,33 95,71 91,151 -3,51 -11,74 -50,141 -26,44 -51,98 -57,120 -11,40 -44,81 -89,111 -17,11 -22,21 -18,38 5,20 -4,28 -84,70 -100,53 -136,85 -144,129 -7,41 -32,59 -181,130 -138,66 -160,82 -150,114 5,16 -2,22 -42,34 -72,23 -131,35 -203,43 -73,8 -100,18 -100,39 0,23 -17,18 -120,-30 z m 330,-72 c 46,-13 68,-25 76,-41 22,-44 50,-64 179,-126 123,-60 133,-67 165,-117 19,-30 57,-70 84,-89 27,-19 90,-72 141,-118 72,-65 97,-93 110,-130 10,-26 36,-78 58,-117 51,-88 61,-164 28,-207 -25,-31 -103,-60 -155,-56 -66,4 -53,29 24,46 l 45,10 -65,1 c -51,1 -61,4 -47,12 10,6 40,14 65,19 l 47,8 -50,1 c -35,1 -59,-5 -80,-19 -39,-26 -49,-25 -30,3 22,34 81,63 160,80 52,12 61,16 35,16 -54,1 -162,-27 -194,-51 -16,-11 -25,-15 -21,-8 5,9 1,10 -16,5 -53,-15 79,67 136,85 33,10 50,19 38,19 -35,1 -114,-28 -160,-60 -49,-32 -55,-28 -16,13 38,40 15,35 -34,-7 -42,-36 -63,-33 -43,5 13,25 140,86 205,98 37,7 42,10 20,11 -67,2 -203,-47 -252,-91 -20,-18 -43,-18 -43,1 0,12 124,100 167,118 21,9 58,22 83,29 l 45,14 -42,-5 c -65,-8 -142,-41 -200,-85 -29,-22 -53,-37 -53,-34 0,17 26,48 67,79 25,19 41,35 36,35 -16,0 -86,-54 -116,-90 -21,-24 -31,-30 -39,-22 -20,20 66,113 132,142 24,10 24,10 -4,5 -36,-8 -105,-54 -139,-94 -14,-17 -27,-27 -30,-24 -10,9 21,60 49,82 17,13 21,21 12,21 -8,0 -36,-19 -62,-41 -61,-54 -72,-42 -15,14 32,33 59,49 103,61 32,10 61,15 64,12 3,-3 10,-1 17,4 6,5 38,16 71,24 78,19 50,20 -56,1 -128,-23 -178,-43 -232,-93 -52,-49 -55,-48 -33,3 13,34 13,35 -5,25 -10,-6 -25,-19 -33,-31 -9,-12 -18,-16 -21,-10 -9,14 54,73 112,104 26,14 86,37 132,51 92,27 72,36 -24,11 -80,-21 -159,-60 -220,-109 -28,-23 -59,-40 -68,-38 -41,8 -7,110 58,176 21,22 30,34 19,26 -47,-33 -88,-78 -111,-122 -13,-27 -28,-48 -34,-48 -59,0 59,169 159,228 24,14 71,36 105,49 40,15 49,21 26,17 -56,-10 -151,-52 -201,-88 -54,-40 -149,-162 -149,-192 0,-18 16,-28 93,-59 274,-109 475,-262 567,-434 50,-94 101,-143 173,-169 57,-20 83,-57 116,-162 39,-130 35,-249 -12,-349 l -22,-46 -6,150 c -6,138 -25,302 -35,292 -2,-2 0,-35 6,-73 20,-140 3,-364 -32,-412 -7,-10 -47,-50 -89,-90 l -76,-71 18,52 c 58,173 64,462 15,632 -35,118 -95,242 -142,295 -40,44 -123,104 -184,134 l -35,17 25,-21 c 14,-11 45,-35 70,-52 131,-92 170,-138 214,-257 101,-268 90,-568 -29,-816 -38,-79 -138,-198 -232,-275 -35,-29 -63,-50 -63,-48 0,2 11,19 25,38 42,57 28,53 -37,-13 -38,-37 -92,-77 -134,-100 -40,-20 -75,-37 -78,-37 -3,0 15,19 40,42 25,23 57,65 71,93 14,27 47,73 73,101 26,28 59,73 73,100 36,73 60,183 53,246 -10,88 -9,96 14,129 27,37 134,109 164,109 18,0 18,2 6,14 -19,18 -102,46 -135,46 h -25 v 148 c 0,193 -12,259 -77,435 -31,83 -41,84 -13,1 58,-167 85,-354 74,-500 l -7,-82 -48,-5 c -56,-7 -121,-34 -182,-75 l -42,-28 3,80 c 2,45 0,124 -4,176 l -8,95 -7,-183 c -7,-197 -8,-198 -69,-242 l -25,-18 -1,97 c -1,115 -16,209 -50,312 -44,135 -154,304 -215,331 -16,7 -44,36 -63,63 -37,55 -133,164 -211,238 l -50,48 170,-5 c 94,-3 186,-8 205,-11 l 35,-4 -35,9 c -20,5 -90,14 -156,19 -256,23 -493,-25 -788,-158 -38,-17 -67,-34 -64,-36 3,-3 45,13 94,36 123,57 299,113 421,135 l 103,17 90,-91 c 103,-105 172,-195 206,-267 21,-43 24,-46 24,-22 0,37 12,34 55,-15 72,-84 137,-262 153,-420 l 8,-77 -40,-22 c -23,-12 -108,-88 -191,-169 -138,-135 -250,-228 -260,-218 -2,2 7,32 21,67 36,90 47,174 35,264 -10,71 -41,168 -62,194 -6,6 -14,40 -19,74 -10,73 -71,205 -134,293 -68,94 -191,205 -270,242 -17,8 -22,9 -12,2 67,-45 169,-135 203,-180 37,-49 72,-107 75,-125 0,-5 8,-18 16,-31 26,-40 62,-152 62,-193 0,-25 10,-57 24,-82 46,-78 60,-249 31,-361 -23,-87 -84,-198 -172,-311 -159,-203 -347,-310 -543,-309 -106,0 -168,20 -263,84 -61,41 -170,139 -128,115 10,-5 12,-4 7,4 -4,6 -11,9 -15,7 -10,-7 -47,27 -121,107 l -62,69 28,31 29,30 -35,-19 c -19,-11 -39,-29 -44,-40 -9,-19 -14,-18 -155,36 -179,70 -202,81 -235,120 -31,38 -32,54 -6,80 45,45 191,15 403,-82 93,-43 113,-49 133,-39 31,14 31,50 1,135 -39,105 -152,243 -276,337 -41,30 -38,38 33,83 55,35 100,85 155,174 41,65 49,70 273,194 485,267 734,361 1008,383 216,17 556,-58 783,-172 38,-19 81,-39 95,-44 l 26,-10 -19,22 c -51,56 -232,149 -378,194 -269,82 -506,93 -742,33 -44,-11 -84,-20 -90,-21 -35,-6 42,310 100,409 57,97 213,196 378,240 80,21 108,24 212,20 74,-3 145,-12 185,-23 z m 1774,-149 c 30,-12 16,-43 -41,-91 -166,-141 -225,-212 -244,-297 -10,-46 -9,-61 6,-107 10,-29 19,-82 19,-118 1,-37 8,-80 16,-98 12,-27 12,-43 2,-91 -17,-81 -15,-122 7,-158 l 18,-30 -71,-39 c -71,-38 -339,-216 -386,-256 -48,-40 92,42 277,163 100,66 187,117 192,114 5,-4 15,-32 21,-64 27,-137 46,-175 138,-275 76,-84 99,-147 70,-200 -6,-12 -28,-41 -48,-65 -46,-52 -52,-77 -33,-156 9,-41 12,-84 8,-131 -6,-59 -3,-80 15,-130 38,-102 38,-129 -3,-175 -20,-21 -39,-55 -43,-75 -13,-72 33,-179 110,-254 20,-19 36,-38 36,-42 0,-14 -50,-19 -101,-9 -153,29 -287,153 -441,410 -43,73 -69,126 -50,105 5,-5 44,-66 87,-135 86,-136 223,-285 303,-328 58,-32 53,-23 -13,23 -60,41 -235,219 -235,238 0,7 30,-19 66,-58 36,-38 52,-52 35,-30 -190,245 -316,419 -420,585 l -15,25 23,-20 c 12,-10 53,-69 91,-130 51,-81 103,-145 198,-245 71,-74 145,-143 163,-153 30,-17 28,-14 -11,19 -85,71 -234,242 -310,354 -41,62 74,-54 141,-142 33,-43 62,-78 65,-78 7,0 -15,38 -26,45 -6,3 -29,34 -52,68 -48,71 -41,67 100,-65 50,-48 101,-92 111,-98 21,-11 -114,122 -319,314 -107,100 -177,156 -254,201 -16,9 -16,13 3,55 61,139 41,343 -45,456 -19,25 -34,47 -32,48 2,2 19,12 39,24 20,12 58,50 84,84 27,35 64,78 83,95 18,18 35,41 37,50 2,10 20,61 40,113 20,52 47,138 61,190 39,153 82,230 190,338 51,51 78,82 61,70 -53,-36 -153,-143 -183,-194 -34,-58 -104,-231 -100,-247 1,-7 0,-7 -3,-2 -2,6 -15,-21 -27,-60 -28,-87 -30,-74 -5,47 24,116 49,182 105,278 99,169 209,255 426,333 21,8 46,8 64,1 z M 2116,3863 c -8,-16 -21,-37 -30,-48 -23,-31 -20,1 5,41 25,41 46,46 25,7 z m -63,-208 c -8,-33 -16,-88 -17,-122 -1,-59 -3,-63 -29,-74 -15,-6 -30,-10 -32,-7 -8,8 34,158 60,216 14,30 27,53 30,51 2,-3 -3,-32 -12,-64 z m -943,-701 c 0,-17 -103,-143 -112,-137 -6,3 -8,1 -4,-5 6,-10 -29,-42 -46,-42 -5,0 -8,19 -8,43 0,52 34,107 82,130 33,16 88,23 88,11 z M 898,2644 c 64,-32 160,-125 211,-204 51,-78 115,-230 102,-243 -13,-13 -66,1 -86,23 -10,11 -32,55 -50,98 -37,92 -76,150 -137,209 -55,53 -118,85 -169,87 -43,1 -48,10 -22,38 24,27 88,23 151,-8 z m -33,-133 c 48,-28 127,-90 95,-75 -8,4 -22,13 -30,20 -8,7 -42,29 -74,48 -33,20 -56,36 -50,36 5,0 32,-13 59,-29 z m 2585,-29 c 3,-2 0,-7 -7,-9 -28,-10 -104,-76 -118,-103 -19,-37 -19,-63 1,-102 12,-23 14,-44 9,-83 -14,-119 -51,-198 -134,-289 -32,-36 -64,-79 -71,-95 -9,-23 -23,-34 -50,-42 -57,-17 -103,-4 -162,47 -29,25 -70,54 -90,65 -53,27 -49,43 9,36 26,-3 80,-22 124,-46 98,-51 110,-52 39,-4 -58,39 -137,73 -170,73 -11,0 -20,5 -20,11 0,19 135,-1 245,-36 11,-3 3,3 -17,14 -46,26 -140,51 -191,51 -26,0 -36,4 -31,11 9,15 161,6 263,-16 88,-18 105,-13 29,10 -65,19 -164,34 -238,36 l -55,1 45,10 c 25,5 117,12 205,16 l 160,8 -88,8 c -49,5 -130,4 -183,-1 -53,-5 -97,-6 -99,-3 -2,3 83,27 188,53 148,36 177,46 127,41 -36,-3 -116,-16 -179,-30 -152,-33 -163,-22 -21,21 78,23 270,98 265,103 -2,2 -74,-19 -159,-48 -165,-55 -217,-61 -126,-15 30,15 73,39 95,53 22,14 81,48 130,74 123,67 67,50 -77,-23 -115,-58 -145,-69 -133,-49 4,6 10,8 15,5 4,-3 52,28 106,67 55,40 126,87 159,105 33,18 57,33 54,33 -21,1 -99,-42 -205,-111 -66,-43 -124,-79 -128,-79 -14,0 24,43 80,91 31,26 62,45 67,42 6,-3 7,-1 4,4 -12,20 121,85 208,103 38,8 115,3 125,-8 z m -534,-18 c 4,-14 0,-62 -9,-106 -13,-67 -28,-100 -87,-199 -79,-132 -101,-150 -243,-205 -38,-14 -67,-28 -65,-30 8,-7 124,29 171,52 41,21 47,22 38,7 -16,-29 -74,-81 -104,-92 -40,-15 -130,-14 -151,2 -15,11 -16,18 -8,34 17,31 4,59 -40,88 -49,33 -49,62 2,79 65,22 165,99 280,218 112,114 184,178 201,178 5,0 12,-12 15,-26 z M 991,2403 c 13,-16 12,-17 -3,-4 -10,7 -18,15 -18,17 0,8 8,3 21,-13 z m 1412,-454 c 16,-25 -28,-102 -106,-185 -72,-77 -132,-121 -243,-179 -82,-43 -37,-36 51,8 132,65 244,166 294,265 l 22,43 32,-23 c 26,-18 50,-24 120,-28 l 88,-5 -31,-47 c -63,-96 -226,-218 -332,-250 -66,-20 -343,-16 -440,6 -43,9 -80,21 -82,25 -3,5 27,21 66,36 80,31 173,92 263,170 93,81 248,186 269,183 10,-2 23,-10 29,-19 z m 1224,-125 c -3,-3 -12,-4 -19,-1 -8,3 -5,6 6,6 11,1 17,-2 13,-5 z m -699,-76 c 28,-17 50,-22 97,-21 l 60,2 -45,-43 c -36,-33 -65,-49 -142,-74 -54,-18 -119,-35 -145,-39 l -48,-6 71,69 c 39,38 79,84 89,102 11,17 21,32 23,32 3,0 21,-10 40,-22 z m 1412,-8 c 6,-11 8,-20 6,-20 -3,0 -10,9 -16,20 -6,11 -8,20 -6,20 3,0 10,-9 16,-20 z m -615,-145 c 11,-9 -8,-2 -42,16 -35,17 -80,47 -100,66 -33,29 -28,27 42,-16 44,-28 89,-57 100,-66 z m -505,-56 c 26,-98 16,-115 -14,-25 -19,59 -19,59 -4,54 7,-3 15,-15 18,-29 z m -28,-33 c 7,4 8,2 4,-5 -4,-7 3,-26 16,-44 14,-18 28,-41 31,-52 11,-30 -43,40 -76,99 -21,36 -22,43 -7,23 12,-15 27,-24 32,-21 z m -659,0 c 19,-18 80,-96 137,-172 57,-77 120,-159 142,-183 21,-24 43,-62 50,-84 12,-38 11,-41 -19,-67 -40,-36 -126,-68 -205,-76 -109,-11 -246,37 -332,116 -23,21 -61,49 -86,62 -30,16 -57,43 -89,90 -40,59 -48,65 -58,51 -11,-14 -17,-6 -47,58 -18,41 -37,90 -40,109 -5,26 5,12 39,-52 25,-49 47,-88 50,-88 2,0 -16,46 -41,101 -49,112 -53,146 -5,51 33,-66 134,-203 177,-242 28,-25 28,-25 -3,15 -30,39 -93,141 -93,150 0,20 27,-8 74,-77 50,-74 116,-159 103,-133 -2,6 -23,40 -46,78 -22,37 -39,67 -36,67 2,0 25,-29 50,-64 50,-71 153,-171 206,-200 23,-13 6,7 -51,61 -47,44 -101,102 -120,129 l -35,49 80,-71 c 45,-38 101,-84 126,-102 64,-43 197,-112 217,-112 9,0 -24,22 -75,49 -51,27 -120,71 -155,97 -80,62 -208,183 -208,198 0,6 30,-19 68,-56 37,-36 87,-76 110,-88 24,-12 65,-37 91,-55 90,-65 101,-57 26,19 -67,67 -175,202 -175,219 0,21 34,2 75,-42 25,-26 71,-62 103,-79 59,-32 159,-63 197,-61 11,0 -5,7 -35,15 -91,24 -172,68 -228,122 -28,28 -52,55 -52,60 0,27 33,13 104,-43 69,-56 196,-134 196,-121 0,2 -30,26 -67,52 -38,26 -105,84 -151,128 -78,76 -83,79 -80,51 2,-24 -2,-32 -27,-44 -52,-25 -115,-32 -200,-20 -91,12 -118,26 -133,67 l -10,30 146,4 c 153,3 182,9 162,33 -9,11 -5,16 22,24 18,5 52,10 75,10 35,1 48,-5 76,-33 z m -848,-107 c -24,-66 -29,-175 -11,-234 l 15,-50 -6,71 c -5,73 8,162 33,218 l 14,31 -7,-40 c -23,-117 1,-288 47,-345 18,-23 18,-21 -2,25 -20,43 -23,67 -23,175 0,69 5,133 10,142 7,12 10,-4 11,-60 1,-83 28,-172 65,-214 l 21,-23 -20,35 c -20,36 -52,150 -52,186 0,10 16,-19 34,-65 45,-109 59,-122 36,-30 -11,40 -18,75 -16,77 2,2 14,-27 27,-65 30,-88 31,-186 2,-215 -19,-19 -22,-19 -59,-3 -21,9 -52,29 -69,44 -31,30 -75,57 -87,53 -14,-4 -20,114 -9,177 12,62 49,166 57,158 3,-2 -3,-24 -11,-48 z m 745,-192 c 0,-12 -49,25 -89,66 -20,22 -30,40 -26,48 6,8 25,-6 61,-47 29,-32 53,-63 54,-67 z m -272,-143 c -5,-4 -67,90 -74,113 -3,10 13,-11 35,-46 23,-35 40,-65 39,-67 z m -494,20 c 3,-8 2,-12 -4,-9 -6,3 -10,10 -10,16 0,14 7,11 14,-7 z"
       id="path1"
       sodipodi:nodetypes="cccscsscsccccscsccccccccccccccscscccccccccscccccscccccccccscsccccccccssccccccccccccccsccccccscccccccccccccccsccccccccccccsccccccccccccccccccscccccccsccccccccccccccssscccccccccsccsccsccsccccccccccccsccccccccccsccccsccccsscscscccccscccsccccccccccccccccsccccscccccccsccccccccccccccssccsscscccscscscccccccccccccccccccccccccccccccscccccsscccccccccsccccccccccccccccsccccccccccccccccccccccccscccccccccccccccccsccccccscccccccccccscccccccccscccscsccccccccccccccccccccsccsscsccsscccccccscsccccccccccccccssccscccccccccssccccsccscccccsccsccscccccccccccccccscscssccccccccccccccccccccccccccccccscsssssscccscccccsccccccccccccccccccsccccscccscccccccsscsccccscccccscscccccccccccccccccccccscccccsccscsccccccccccccccccssc" />
    <path
       d="m 2716,4019 c -84,-56 -178,-190 -229,-329 -36,-97 -40,-120 -22,-120 8,0 17,12 21,28 35,157 135,329 240,413 65,51 61,55 -10,8 z"
       id="path2" />
    <path
       d="m 2528,4000 c -64,-45 -143,-140 -182,-217 -27,-55 -60,-173 -47,-173 4,0 13,24 20,53 33,130 113,248 236,345 57,45 39,39 -27,-8 z"
       id="path3" />
    <path
       d="m 2360,3975 c -39,-57 -81,-150 -125,-279 -37,-108 -44,-166 -22,-166 9,0 21,35 36,103 28,124 69,238 116,323 19,35 33,64 30,64 -2,0 -18,-20 -35,-45 z"
       id="path4" />
    <path
       d="m 2858,3980 c -42,-23 -158,-127 -158,-143 0,-6 21,11 48,38 26,27 74,66 106,87 63,40 65,50 4,18 z"
       id="path5" />
    <path
       d="m 2255,3928 c -38,-44 -77,-113 -89,-158 -4,-14 11,9 34,50 23,41 55,92 71,113 41,51 29,47 -16,-5 z"
       id="path6" />
    <path
       d="m 2593,3948 c -28,-31 -57,-78 -51,-83 2,-2 20,20 40,50 40,60 42,66 11,33 z"
       id="path7" />
    <path
       d="m 3047,3939 c -83,-43 -167,-134 -217,-235 -46,-93 -63,-164 -38,-164 10,0 19,18 26,56 27,133 123,265 243,337 76,44 68,48 -14,6 z"
       id="path8" />
    <path
       d="m 3125,3873 c -76,-39 -173,-144 -223,-241 -41,-78 -47,-112 -22,-112 6,0 13,8 17,18 3,9 22,53 43,97 43,93 106,168 192,224 69,47 66,52 -7,14 z"
       id="path9" />
    <path
       d="m 2785,3756 c -20,-45 -65,-172 -65,-183 0,-1 4,-3 9,-3 5,0 12,17 16,38 3,21 21,75 39,120 37,92 38,111 1,28 z"
       id="path10" />
    <path
       d="m 2581,3699 c -46,-97 -53,-132 -30,-137 12,-2 19,12 28,55 8,32 22,80 32,107 30,81 12,66 -30,-25 z"
       id="path11" />
    <path
       d="m 2687,3692 c -47,-103 -53,-128 -32,-135 9,-4 18,-1 20,6 14,42 54,202 51,204 -2,2 -19,-32 -39,-75 z"
       id="path12" />
    <path
       d="m 2376,3679 c -26,-93 -28,-107 -16,-114 6,-4 14,-5 17,-2 7,8 25,158 19,164 -3,3 -12,-19 -20,-48 z"
       id="path13" />
    <path
       d="m 3300,3696 c -90,-27 -142,-51 -165,-77 -14,-14 -2,-11 46,13 35,17 102,44 149,59 101,34 78,38 -30,5 z"
       id="path14" />
    <path
       d="m 2823,3396 c 27,-28 110,-232 138,-341 15,-60 28,-99 28,-85 1,47 -40,185 -89,301 -28,63 -50,121 -50,127 0,7 -9,12 -21,12 -18,0 -19,-2 -6,-14 z"
       id="path15" />
    <path
       d="m 2910,3380 c 34,-11 60,-11 35,0 -11,5 -29,8 -40,8 -16,0 -15,-2 5,-8 z"
       id="path16" />
    <path
       d="m 2349,3195 c 123,-135 232,-282 283,-384 42,-82 43,-85 43,-185 0,-113 0,-113 -109,-299 -55,-94 -65,-125 -30,-97 22,19 124,194 147,254 15,41 18,70 15,152 -3,93 -6,107 -40,175 -52,103 -153,234 -287,369 l -113,115 z"
       id="path17" />
    <path
       d="m 3094,3270 c 4,-21 22,-128 39,-230 3,-15 5,-7 6,18 1,45 -23,178 -40,215 -9,21 -9,21 -5,-3 z"
       id="path18" />
    <path
       d="m 1903,3130 c 43,-27 53,-41 116,-172 85,-173 152,-339 176,-433 21,-82 24,-240 6,-330 -38,-196 -181,-336 -388,-380 -144,-31 -387,-13 -472,35 l -36,20 29,-24 c 46,-38 128,-57 271,-63 220,-9 375,39 487,151 104,104 141,213 142,411 0,141 -17,211 -96,395 -86,202 -169,351 -217,388 -24,17 -48,32 -54,32 -6,0 10,-13 36,-30 z"
       id="path19" />
    <path
       d="m 1431,3070 c -18,-16 -73,-50 -122,-76 -49,-26 -88,-49 -86,-51 9,-9 169,81 209,117 50,45 49,53 -1,10 z"
       id="path20" />
    <path
       d="m 2085,3041 c 6,-6 44,-24 85,-41 41,-17 70,-27 65,-21 -14,13 -162,75 -150,62 z"
       id="path21" />
    <path
       d="m 3142,2985 c 0,-16 2,-22 5,-12 2,9 2,23 0,30 -3,6 -5,-1 -5,-18 z"
       id="path22" />
    <path
       d="m 1560,2969 c -95,-43 -144,-117 -144,-219 0,-79 25,-132 84,-183 108,-92 259,-70 344,51 64,90 41,231 -50,311 -71,62 -153,77 -234,40 z m 180,-48 c 102,-52 132,-203 57,-288 -97,-110 -258,-89 -318,42 -78,168 96,331 261,246 z"
       id="path23" />
    <path
       d="m 1602,2860 c -124,-76 -78,-260 65,-260 73,0 143,71 143,146 0,40 -30,94 -64,115 -40,25 -102,24 -144,-1 z m 96,-72 c 3,-24 0,-28 -23,-28 -27,0 -41,20 -31,46 10,27 51,13 54,-18 z"
       id="path24" />
    <path
       d="m 2992,2920 c 0,-14 2,-19 5,-12 2,6 2,18 0,25 -3,6 -5,1 -5,-13 z"
       id="path25" />
    <path
       d="m 1223,2779 c -27,-10 -46,-44 -38,-69 17,-52 67,-65 103,-27 26,27 27,45 7,74 -17,25 -43,33 -72,22 z m 44,-40 c 16,-16 5,-39 -17,-39 -23,0 -34,16 -26,35 6,18 28,19 43,4 z"
       id="path26" />
    <path
       d="m 1921,2510 c -1,-3 8,-34 19,-68 36,-116 23,-250 -35,-342 -74,-117 -256,-209 -415,-210 -55,0 -145,22 -202,50 -53,25 -61,25 -23,0 50,-34 151,-60 229,-60 318,1 542,247 472,518 -13,52 -45,129 -45,112 z"
       id="path27" />
    <path
       d="m 880,2200 c 87,-22 111,-25 58,-5 -20,8 -59,16 -85,19 -38,5 -33,2 27,-14 z"
       id="path28" />
    <path
       d="m 1155,2064 c 18,-13 102,-30 110,-22 3,2 -25,11 -62,19 -49,12 -61,12 -48,3 z"
       id="path29" />
    <path
       d="m 4439,3703 c -13,-16 -12,-17 4,-4 16,13 21,21 13,21 -2,0 -10,-8 -17,-17 z"
       id="path30" />
    <path
       d="m 4399,3663 c -13,-16 -12,-17 4,-4 16,13 21,21 13,21 -2,0 -10,-8 -17,-17 z"
       id="path31" />
    <path
       d="m 4388,3603 c -19,-22 -63,-109 -72,-143 -4,-14 7,3 23,38 17,34 40,76 51,92 23,33 22,40 -2,13 z"
       id="path32" />
    <path
       d="m 4242,3402 c -105,-228 -130,-285 -116,-267 34,43 161,322 151,332 -2,1 -17,-28 -35,-65 z"
       id="path33" />
    <path
       d="m 4330,3380 c -6,-11 -8,-20 -6,-20 3,0 10,9 16,20 6,11 8,20 6,20 -3,0 -10,-9 -16,-20 z"
       id="path34" />
    <path
       d="m 4300,3330 c -6,-11 -8,-20 -6,-20 3,0 10,9 16,20 6,11 8,20 6,20 -3,0 -10,-9 -16,-20 z"
       id="path35" />
    <path
       d="m 4313,3263 c -88,-101 -210,-261 -166,-218 20,19 243,295 238,295 -2,0 -35,-35 -72,-77 z"
       id="path36" />
    <path
       d="m 4248,3059 c -109,-111 -209,-216 -221,-233 -20,-29 -18,-28 28,11 73,60 414,423 399,423 -4,0 -97,-91 -206,-201 z"
       id="path37" />
    <path
       d="m 4140,3122 c -30,-48 -64,-95 -75,-105 -11,-10 -14,-16 -7,-12 23,12 12,-10 -38,-74 -50,-64 -54,-71 -46,-71 19,0 230,322 224,341 -2,5 -28,-30 -58,-79 z"
       id="path38" />
    <path
       d="m 4076,3063 c -6,-14 -5,-15 5,-6 7,7 10,15 7,18 -3,3 -9,-2 -12,-12 z"
       id="path39" />
    <path
       d="m 4395,2701 c -137,-36 -255,-77 -305,-106 -14,-8 -18,-14 -10,-14 21,0 489,157 470,157 -8,0 -78,-16 -155,-37 z"
       id="path40" />
    <path
       d="m 4347,2529 c -120,-8 -262,-31 -234,-37 16,-3 515,35 547,42 28,7 -205,3 -313,-5 z"
       id="path41" />
    <path
       d="m 4125,2389 c 248,-29 474,-51 460,-44 -34,16 -271,47 -395,50 -129,3 -136,3 -65,-6 z"
       id="path42" />
    <path
       d="m 4190,2332 c 63,-27 164,-73 224,-101 60,-28 111,-49 114,-47 6,7 -204,111 -303,151 -132,53 -161,50 -35,-3 z"
       id="path43" />
    <path
       d="m 4155,2252 c 50,-26 142,-75 205,-109 63,-34 126,-64 140,-67 16,-4 10,1 -15,15 -22,12 -94,52 -160,89 -109,62 -233,120 -252,120 -4,0 33,-22 82,-48 z"
       id="path44" />
    <path
       d="m 4090,2237 c 0,-17 268,-208 375,-267 83,-46 62,-28 -90,73 -71,48 -165,112 -207,143 -43,30 -78,54 -78,51 z"
       id="path45" />
    <path
       d="m 4528,1613 c 16,-21 40,-47 53,-58 13,-11 1,6 -25,38 -54,63 -75,78 -28,20 z"
       id="path46" />
    <path
       d="m 4660,1420 c 8,-5 20,-10 25,-10 6,0 3,5 -5,10 -8,5 -19,10 -25,10 -5,0 -3,-5 5,-10 z"
       id="path47" />
    <path
       d="m 2750,2340 c -34,-38 -60,-70 -57,-70 3,0 33,32 67,70 34,39 60,70 57,70 -3,0 -33,-31 -67,-70 z"
       id="path48" />
    <path
       d="m 2855,2370 c -4,-6 -43,-40 -88,-76 -107,-87 -280,-253 -257,-247 10,3 36,20 58,39 22,18 43,30 47,26 5,-4 5,-2 2,5 -4,6 47,62 125,137 73,69 130,126 126,126 -4,0 -10,-5 -13,-10 z"
       id="path49" />
    <path
       d="m 2740,2219 c -36,-28 -76,-62 -90,-76 l -25,-26 30,18 c 28,16 166,135 155,134 -3,0 -34,-23 -70,-50 z"
       id="path50" />
    <path
       d="m 2671,2119 c -125,-86 -155,-111 -101,-84 50,25 173,111 200,140 13,14 22,25 19,24 -2,-1 -55,-37 -118,-80 z"
       id="path51" />
    <path
       d="m 2717,2079 c -15,-12 -62,-39 -103,-60 -41,-21 -69,-39 -61,-39 25,0 152,68 177,95 28,30 24,31 -13,4 z"
       id="path52" />
    <path
       d="m 2493,1433 c 3,-5 27,-23 54,-41 l 48,-34 -35,32 c -36,33 -76,59 -67,43 z"
       id="path53" />
    <path
       d="m 2730,1050 c 8,-5 20,-10 25,-10 6,0 3,5 -5,10 -8,5 -19,10 -25,10 -5,0 -3,-5 5,-10 z"
       id="path54" />
    <path
       d="m 1780,1137 c 0,-15 39,-84 57,-97 17,-14 17,-14 2,5 -9,11 -26,38 -37,60 -12,22 -21,36 -22,32 z"
       id="path55" />
    <path
       d="m 3328,1593 c 7,-3 16,-2 19,1 4,3 -2,6 -13,5 -11,0 -14,-3 -6,-6 z"
       id="path56" />
    <path
       d="m 3378,1583 c 7,-3 16,-2 19,1 4,3 -2,6 -13,5 -11,0 -14,-3 -6,-6 z"
       id="path57" />
    <path
       d="m 3850,1491 c 8,-5 33,-12 55,-15 28,-4 33,-3 15,2 -46,16 -86,23 -70,13 z"
       id="path58" />
    <path
       d="m 3988,1253 c 7,-3 16,-2 19,1 4,3 -2,6 -13,5 -11,0 -14,-3 -6,-6 z"
       id="path59" />
  </g>
  <path
     inkscape:original-d="M 0,0"
     inkscape:path-effect="#path-effect86"
     d="m 273.78856,232.65262 c 4.94968,12.87411 11.17278,5.88639 25.37278,32.68639 10.8,20.4 17.7,30.4 28.6,41.3 11.4,11.3 18.7,15.1 30.7,15.7 8.1,0.4 11.4,-0.4 11.4,-2.9 0,-0.5 -3.3,-4.5 -7.4,-8.9 -11.7,-12.5 -13.8,-22.7 -6.2,-31 4.2,-4.7 4.5,-7.6 1.5,-15.2 -2,-5.1 -2.8,-14.6 -1.4,-16.9 0.4,-0.6 -0.1,-5.1 -1.1,-10 l -1.8,-8.9 2.2,-2.8 c 9.4,-11.5 10.5,-14.6 7.8,-21.5 -0.9,-2.3 -4.4,-7.6 -7.7,-11.7 -7.6,-9.2 -9.5,-13.4 -10.5,-22.8 -0.5,-5.7 -1.4,-8.5 -4.1,-12.89999 -4.4,-7.3 -4.8,-9.3 -3.3,-16.3 1.1,-5 1,-6.5 -0.5,-11 -1.2,-3.8 -1.6,-6.8 -1.1,-10.6 0.5,-4.1 0.1,-6.5 -1.5,-10.5 -1.8,-4.6 -1.9,-5.9 -0.8,-10.099999 1.5,-6.3 7.3,-14.1 18.8,-25 10.2,-9.8 11.5,-12.8 6.1,-14.7 -3.8,-1.3 -10,-0.2 -19.2,3.2 -12.5,4.7 -23,13.4 -31.3,25.8 -6.7,10 -10.6,19.199999 -16.5,38.299999 -6.1,20 -8,25.1 -11.4,31 -3,5.19999 -9.58541,5.75095 -11.5,10.59999 13.53672,26.97127 17.70555,22.26041 4.82722,65.11361 z"
     id="path86"
     style="fill:#d40000" />
  <path
     d="m 273.78856,232.65262 c 4.94968,12.87411 11.17278,5.88639 25.37278,32.68639 10.8,20.4 17.7,30.4 28.6,41.3 11.4,11.3 18.7,15.1 30.7,15.7 8.1,0.4 11.4,-0.4 11.4,-2.9 0,-0.5 -3.3,-4.5 -7.4,-8.9 -11.7,-12.5 -13.8,-22.7 -6.2,-31 4.2,-4.7 4.5,-7.6 1.5,-15.2 -2,-5.1 -2.8,-14.6 -1.4,-16.9 0.4,-0.6 -0.1,-5.1 -1.1,-10 l -1.8,-8.9 2.2,-2.8 c 9.4,-11.5 10.5,-14.6 7.8,-21.5 -0.9,-2.3 -4.4,-7.6 -7.7,-11.7 -7.6,-9.2 -9.5,-13.4 -10.5,-22.8 -0.5,-5.7 -1.4,-8.5 -4.1,-12.89999 -4.4,-7.3 -4.8,-9.3 -3.3,-16.3 1.1,-5 1,-6.5 -0.5,-11 -1.2,-3.8 -1.6,-6.8 -1.1,-10.6 0.5,-4.1 0.1,-6.5 -1.5,-10.5 -1.8,-4.6 -1.9,-5.9 -0.8,-10.099999 1.5,-6.3 7.3,-14.1 18.8,-25 10.2,-9.8 11.5,-12.8 6.1,-14.7 -3.8,-1.3 -10,-0.2 -19.2,3.2 -12.5,4.7 -23,13.4 -31.3,25.8 -6.7,10 -10.6,19.199999 -16.5,38.299999 -6.1,20 -8,25.1 -11.4,31 -3,5.19999 -9.58541,5.75095 -11.5,10.59999 13.53672,26.97127 17.70555,22.26041 4.82722,65.11361 z M 358.26134,60.139021 c 3,1.2 1.6,4.3 -4.1,9.1 -16.6,14.1 -22.5,21.2 -24.4,29.7 -1,4.599999 -0.9,6.099999 0.6,10.699999 1,2.9 1.9,8.2 1.9,11.8 0.1,3.7 0.8,8 1.6,9.8 1.2,2.7 1.2,4.3 0.2,9.1 -1.7,8.1 -1.5,12.2 0.7,15.8 l 1.8,2.99999 -7.1,3.9 c -7.1,3.8 -33.9,21.6 -38.6,25.6 -4.8,4 9.2,-4.2 27.7,-16.3 10,-6.6 18.7,-11.7 19.2,-11.4 0.5,0.4 1.5,3.2 2.1,6.4 2.7,13.7 4.6,17.5 13.8,27.5 7.6,8.4 9.9,14.7 7,20 -0.6,1.2 -2.8,4.1 -4.8,6.5 -4.6,5.2 -5.2,7.7 -3.3,15.6 0.9,4.1 1.2,8.4 0.8,13.1 -0.6,5.9 -0.3,8 1.5,13 3.8,10.2 3.8,12.9 -0.3,17.5 -2,2.1 -3.9,5.5 -4.3,7.5 -1.3,7.2 3.3,17.9 11,25.4 2,1.9 3.6,3.8 3.6,4.2 0,1.4 -5,1.9 -10.1,0.9 -15.3,-2.9 -28.7,-15.3 -44.1,-41 -4.3,-7.3 -6.9,-12.6 -5,-10.5 0.5,0.5 4.4,6.6 8.7,13.5 8.6,13.6 22.3,28.5 30.3,32.8 5.8,3.2 5.3,2.3 -1.3,-2.3 -6,-4.1 -23.5,-21.9 -23.5,-23.8 0,-0.7 3,1.9 6.6,5.8 3.6,3.8 5.2,5.2 3.5,3 -19,-24.5 -29.34023,-37.8562 -39.74023,-54.4562 0,0 3.84023,2.3562 7.64023,8.4562 5.1,8.1 10.3,14.5 19.8,24.5 7.1,7.4 14.5,14.3 16.3,15.3 3,1.7 2.8,1.4 -1.1,-1.9 -8.5,-7.1 -23.4,-24.2 -31,-35.4 -4.1,-6.2 7.4,5.4 14.1,14.2 3.3,4.3 6.2,7.8 6.5,7.8 0.7,0 -1.5,-3.8 -2.6,-4.5 -0.6,-0.3 -2.9,-3.4 -5.2,-6.8 -4.8,-7.1 -4.1,-6.7 10,6.5 5,4.8 10.1,9.2 11.1,9.8 2.1,1.1 -11.4,-12.2 -31.9,-31.4 -10.7,-10 -17.8682,-12.5724 -25.5682,-17.0724 -1.6,-0.9 0.37635,-6.91367 1.4774,-7.6866 14.78224,-33.68412 -0.30737,-40.38292 -4.56687,-49.78987 -1.58403,-4.06539 -2.24233,-2.65113 -0.2423,-3.85113 2,-1.2 5.8,-5 8.4,-8.4 2.7,-3.49999 6.4,-7.79999 8.3,-9.49999 1.8,-1.8 3.5,-4.1 3.7,-5 0.2,-1 2,-6.1 4,-11.3 2,-5.2 4.7,-13.8 6.1,-19 3.9,-15.3 8.2,-22.999999 19,-33.799999 5.1,-5.1 7.8,-8.2 6.1,-7 -5.3,3.6 -15.3,14.3 -18.3,19.4 -3.4,5.799999 -10.4,23.099999 -10,24.699999 0.1,0.7 0,0.7 -0.3,0.2 -0.2,-0.6 -1.5,2.1 -2.7,6 -2.8,8.7 -3,7.4 -0.5,-4.7 2.4,-11.6 4.9,-18.2 10.5,-27.799999 9.9,-16.9 20.9,-25.5 42.6,-33.3 2.1,-0.8 4.6,-0.8 6.4,-0.1 z m -39.4,224.399989 c 0.6,1.1 0.8,2 0.6,2 -0.3,0 -1,-0.9 -1.6,-2 -0.6,-1.1 -0.8,-2 -0.6,-2 0.3,0 1,0.9 1.6,2 z"
     id="path1-0"
     style="fill:#000000;stroke:#000000;stroke-width:0.1"
     sodipodi:nodetypes="ccccscccccccsccccccccccccccccsccccscccccccccccccccccsccccccscccccccccsccccccccscccscscccccccccssssss" />
</svg>
