<svg version="1.1" xmlns="http://www.w3.org/2000/svg" xmlns:xlink="http://www.w3.org/1999/xlink" width="39.37215" height="47.59572" viewBox="0,0,39.37215,47.59572"><g transform="translate(-221.54317,-127.40298)"><g data-paper-data="{&quot;isPaintingLayer&quot;:true}" fill-rule="nonzero" stroke="none" stroke-linecap="butt" stroke-linejoin="miter" stroke-miterlimit="10" stroke-dasharray="" stroke-dashoffset="0" style="mix-blend-mode: normal"><path d="M249.23365,140.01549c1.25,0 1.25,1.25 1.25,1.25v0.4c-0.00651,0.84751 0.03066,1.57892 -0.17495,2.24341c-0.31733,1.02552 -0.98264,1.89161 -1.49034,2.77896c1.49937,-0.52243 3.0812,-0.74552 4.49296,-0.46995c0.9033,0.17631 2.13035,0.08128 2.62442,0.85777c0.305,0.47933 -0.88783,3.22394 -1.33001,3.77567c-1.69588,2.116 -4.21649,2.79643 -6.81222,3.1382c1.06105,0.00182 2.11572,0.09062 3.1024,0.2275c0.98299,0.13636 2.29639,-0.26337 2.93567,0.49571c0.9672,1.14846 -0.57932,3.23911 -1.18891,4.09056c-2.90536,4.05815 -6.35425,4.2664 -10.92041,4.90904c-1.37149,-0.01214 -2.29192,-0.12364 -3.05519,-0.48276c-1.45843,0.96377 -3.66147,1.20643 -5.8068,0.87383c-2.24711,-0.34838 -3.87591,-1.8298 -5.2621,-3.50815c-2.49972,-1.67109 -3.28181,-3.72127 -3.57198,-6.60645c-0.09475,-0.94217 -0.66151,-2.12446 -0.04185,-2.84049c0.52889,-0.61113 4.34572,0.56204 5.21523,0.67821c1.52942,0.20434 3.13077,-0.03155 4.63431,0.20508c3.0911,0.48648 4.44389,2.98218 5.91253,5.3227c1.04999,-1.66402 2.75492,-2.57941 4.67999,-3.02085c-0.48298,0.04882 -0.95673,0.10272 -1.41598,0.16944l-1.37678,0.01256c0,0 -1.25,0 -1.25,-1.25c0,-0.26801 0.05747,-0.47857 0.14776,-0.64397c-1.74863,-1.0512 -2.92952,-2.61116 -2.94776,-5.15602c-0.00853,-1.19043 -0.17343,-3.80759 0.92994,-4.62177c1.23056,-0.90803 3.01797,0.17799 4.07908,0.70373c1.66508,0.825 2.82122,1.83444 3.51047,3.15973c0.91706,-1.53832 1.90184,-2.87712 1.88052,-5.04169v-0.4c0,0 0,-1.25 1.25,-1.25zM250.99118,150.59324c0.29725,-0.17907 1.55277,-1.30385 2.25673,-1.92593c-0.82339,0.2324 -2.43661,0.15327 -2.75357,0.2207c-1.27081,0.27035 -2.5884,0.81007 -3.63608,1.60583c-0.06766,0.36066 -0.31564,1.02165 -1.22462,1.02165c-0.05037,0 -0.09871,-0.00203 -0.1451,-0.00592c0.00698,0.10263 0.00072,0.20094 -0.01228,0.29005c1.95453,-0.11944 3.99938,-0.29337 5.51492,-1.20638zM241.47463,145.78352c-0.52508,-0.26563 -1.17338,-1.37113 -1.52093,-0.89626c-0.42476,0.58038 0.04638,4.11728 0.61704,4.75098c0.74807,0.83069 1.94807,1.0644 2.63296,2.05353l-0.08809,-0.58528c0,0 0.28265,-0.56531 0.84796,-0.69099c-0.06178,-0.541 0.32593,-0.97051 0.37999,-1.02747c-0.19441,-1.76217 -1.09596,-2.70758 -2.86893,-3.6045zM236.73048,158.05281c0.19588,-0.04897 0.36803,-0.05839 0.51901,-0.03976c0.00383,-0.01183 0.00779,-0.02349 0.01191,-0.03499c-0.89985,-1.58094 -1.94829,-3.25081 -3.82797,-3.47871c-0.95218,-0.11544 -1.92041,0.07752 -2.87744,0.01372c-0.90516,-0.06035 -2.58047,-0.12354 -3.81048,-0.4322c0.12793,0.90031 0.03359,2.02302 0.08452,2.22239c0.2558,1.00129 1.69172,1.93559 2.43912,2.43245c0.82294,0.97934 1.69657,2.02625 2.88919,2.59522c1.35796,0.64784 3.3646,0.80302 4.59282,0.18987c-0.17767,-0.22999 -0.36205,-0.48323 -0.55755,-0.76193l-0.37261,-1.1902c0,0 -0.30318,-1.21268 0.9095,-1.51585zM241.54504,161.21864c1.54819,-0.22483 3.12619,-0.33098 4.66751,-0.58344c1.62556,-0.26626 2.64663,-1.08986 3.64502,-2.35058c0.41796,-0.52778 0.72804,-1.149 1.16497,-1.65683c-3.11965,1.07389 -8.4486,-1.60449 -9.58698,2.9811c0,0 -0.25628,0.897 -1.10095,0.91977c-0.02452,0.22639 -0.06628,0.44156 -0.12399,0.64574c0.33766,0.04911 0.76089,0.05177 1.33442,0.04424z" fill="#4d934c" stroke-width="0.5"/><path d="M241.46287,145.87778c1.77297,0.89692 2.73085,1.91358 2.92526,3.67575c-0.05406,0.05696 -0.45356,0.50157 -0.39178,1.04257c-0.56531,0.12568 -0.8636,0.70021 -0.8636,0.70021l0.08656,0.58581c-0.68489,-0.98913 -1.93691,-1.23609 -2.68499,-2.06678c-0.57066,-0.6337 -1.03209,-4.24713 -0.60733,-4.82751c0.34755,-0.47487 1.01081,0.6243 1.53589,0.88993z" data-paper-data="{&quot;noHover&quot;:false,&quot;origItem&quot;:[&quot;Path&quot;,{&quot;applyMatrix&quot;:true,&quot;selected&quot;:true,&quot;segments&quot;:[[[482.94925,291.56703],[0,0],[-1.05016,-0.53126]],[[479.90739,289.77451],[0.6951,-0.94974],[-0.84952,1.16076]],[[481.14147,299.27647],[-1.14132,-1.2674],[1.49614,1.66138]],[[486.40739,303.38353],[-1.36978,-1.97826],[0,0]],[486.23121,302.21297],[[487.92713,300.83099],[-1.13062,0.25136],[-0.12356,-1.082]],[[488.68711,298.77605],[-0.10812,0.11392],[-0.38882,-3.52434]],[[482.94925,291.56705],[3.54594,1.79384],[0,0]]],&quot;closed&quot;:true,&quot;fillColor&quot;:[0,0,0,1],&quot;strokeWidth&quot;:0.5}]}" fill="#64be63" stroke-width="0.25"/><path d="M245.42988,151.96117c0.013,-0.08911 0.01815,-0.19046 0.01117,-0.29309c0.04639,0.00389 0.09494,0.00653 0.14531,0.00653c0.90898,0 1.15452,-0.67208 1.22217,-1.03274c1.04768,-0.79576 2.44719,-1.37891 3.71801,-1.64926c0.31696,-0.06743 1.94436,0.03127 2.76775,-0.20113c-0.70396,0.62208 -1.95703,1.77633 -2.25428,1.9554c-1.51554,0.91301 -3.65559,1.09485 -5.61012,1.21429z" data-paper-data="{&quot;noHover&quot;:false,&quot;origItem&quot;:[&quot;Path&quot;,{&quot;applyMatrix&quot;:true,&quot;selected&quot;:true,&quot;segments&quot;:[[[501.98235,301.18647],[-3.03108,1.82602],[0.5945,-0.35814]],[[506.49581,297.33461],[-1.40792,1.24416],[-1.64678,0.4648]],[[500.98867,297.77601],[0.63392,-0.13486],[-2.54162,0.5407]],[[493.71651,300.98767],[2.09536,-1.59152],[-0.13532,0.72132]],[[491.26727,303.03097],[1.81796,0],[-0.10074,0]],[[490.97707,303.01913],[0.09278,0.00778],[0.01396,0.20526]],[[490.95251,303.59923],[0.026,-0.17822],[3.90906,-0.23888]]],&quot;closed&quot;:true,&quot;fillColor&quot;:[0,0,0,1],&quot;strokeWidth&quot;:0.5}]}" fill="#64be63" stroke-width="0.25"/><path d="M240.16445,161.33647c0.05771,-0.20418 0.09779,-0.42404 0.12231,-0.65043c0.84467,-0.02277 1.09945,-0.92622 1.09945,-0.92622c1.13838,-4.58559 6.56269,-1.93483 9.68234,-3.00872c-0.43693,0.50783 -0.74359,1.14114 -1.16155,1.66892c-0.99839,1.26072 -2.05245,2.139 -3.67801,2.40526c-1.54132,0.25246 -3.17933,0.33594 -4.72752,0.56077c-0.57353,0.00753 -0.99937,-0.00046 -1.33703,-0.04957z" data-paper-data="{&quot;noHover&quot;:false,&quot;origItem&quot;:[&quot;Path&quot;,{&quot;applyMatrix&quot;:true,&quot;selected&quot;:true,&quot;segments&quot;:[[[483.09007,322.43727],[-1.14706,0.01506],[3.09638,-0.44966]],[[492.42509,321.27039],[-3.08264,0.50492],[3.25112,-0.53252]],[[499.71513,316.56923],[-1.99678,2.52144],[0.83592,-1.05556]],[[502.04507,313.25557],[-0.87386,1.01566],[-6.2393,2.14778]],[[482.87111,319.21777],[2.27676,-9.17118],[0,0]],[[480.66921,321.05731],[1.68934,-0.04554],[-0.04904,0.45278]],[[480.42123,322.34879],[0.11542,-0.40836],[0.67532,0.09822]]],&quot;closed&quot;:true,&quot;fillColor&quot;:[0,0,0,1],&quot;strokeWidth&quot;:0.5}]}" fill="#64be63" stroke-width="0.25"/><path d="M236.78049,158.1963c-1.21268,0.30317 -0.91327,1.53429 -0.91327,1.53429l0.36812,1.19868c0.1955,0.2787 0.37828,0.53422 0.55595,0.76421c-1.22822,0.61315 -3.27268,0.4781 -4.63064,-0.16974c-1.19262,-0.56897 -2.11683,-1.65274 -2.93976,-2.63208c-0.7474,-0.49686 -2.18259,-1.45978 -2.43839,-2.46107c-0.05093,-0.19937 0.05083,-1.3364 -0.0771,-2.23671c1.23001,0.30866 2.92623,0.35554 3.83139,0.41589c0.95703,0.0638 1.96339,-0.12927 2.91557,-0.01383c1.87968,0.2279 2.95919,1.94389 3.85904,3.52483c-0.00412,0.0115 -0.00808,0.02349 -0.01191,0.03533c-0.15098,-0.01863 -0.32314,-0.00877 -0.51901,0.0402z" data-paper-data="{&quot;noHover&quot;:false,&quot;origItem&quot;:[&quot;Path&quot;,{&quot;applyMatrix&quot;:true,&quot;selected&quot;:true,&quot;segments&quot;:[[[473.46095,316.10561],[0,0],[0.39176,-0.09794]],[[474.49897,316.02609],[-0.30196,-0.03726],[0.00766,-0.02366]],[[474.52279,315.95611],[-0.00824,0.023],[-1.7997,-3.16188]],[[466.86685,308.99869],[3.75936,0.4558],[-1.90436,-0.23088]],[[461.11197,309.02613],[1.91406,0.1276],[-1.81032,-0.1207]],[[453.49101,308.16173],[2.46002,0.61732],[0.25586,1.80062]],[[453.66005,312.60651],[-0.10186,-0.39874],[0.5116,2.00258]],[[458.53829,317.47141],[-1.4948,-0.99372],[1.64588,1.95868]],[[464.31667,322.66185],[-2.38524,-1.13794],[2.71592,1.29568]],[[473.50231,323.04159],[-2.45644,1.2263],[-0.35534,-0.45998]],[[472.38721,321.51773],[0.391,0.5574],[0,0]],[471.64199,319.13733],[[473.46099,316.10563],[-2.42536,0.60634],[0,0]]],&quot;closed&quot;:true,&quot;fillColor&quot;:[0,0,0,1],&quot;strokeWidth&quot;:0.5}]}" fill="#64be63" stroke-width="0.25"/><path d="M241.63373,171.12783c2.08619,1.7522 5.10437,0.46365 7.24079,-0.53137c2.01709,-1.31553 4.06603,-1.64718 5.30691,-3.67826c0.9708,-1.589 1.08026,-3.17918 1.08226,-4.91055c0.00032,-0.2733 -0.28616,-1.80015 -0.13207,-2.37903c-0.21947,0.13031 -0.52376,0.27961 -0.69256,0.33618c-0.29545,0.099 -0.60603,0.16441 -0.90905,0.24661c-2.50992,0.26127 -5.06773,0.36677 -7.53204,0.74556c-0.96036,0.14762 -1.9475,0.04575 -2.75531,0.59905c-1.4251,0.97609 -1.74328,2.9496 -1.92606,4.35021c0,0 -0.08614,0.63518 -0.84996,0.5901c0.04569,0.16055 0.08422,0.32197 0.11517,0.48401c0.17673,0.11086 0.26508,0.25565 0.26508,0.25565l0.34497,0.72202c0,0.88155 0.07747,1.82364 0.03358,2.75032zM242.18887,160.54668c1.11057,-0.73414 2.16031,-0.68748 3.47003,-0.88854c2.46402,-0.37829 5.00805,-0.49096 7.51249,-0.74203c0.66239,-0.18258 2.24131,-1.00206 2.89198,-0.68355c0.90851,0.44474 0.63963,1.59465 0.68977,2.24043c0.19002,2.44742 0.26289,4.7684 -1.1205,7.03727c-1.39238,2.2836 -3.61595,2.71489 -5.84681,4.18471c-2.77265,1.30375 -6.10218,2.43882 -8.82919,0.70049c-0.13965,0.4531 -0.34438,0.88958 -0.64148,1.299c-0.86215,1.18808 -2.55444,1.29932 -4.08409,1.30305c-2.43303,0.00592 -4.77653,0.02599 -6.94036,-0.9649c-2.78456,-1.81483 -5.11476,-4.39332 -5.78682,-7.32758c-0.19311,-0.84312 -0.01347,-1.69634 -0.25298,-2.52591c-0.33334,-1.15455 -0.80776,-2.25325 -1.16881,-3.38836l-0.06424,0.02631l-0.38178,-0.62559c-0.0593,-0.09229 -0.09287,-0.19742 -0.09287,-0.30895c0,-0.36677 0.36291,-0.6641 0.81059,-0.6641c0.08381,0 0.16465,0.01041 0.24069,0.02976l0.84465,0.19772c1.07391,0.10802 2.11113,0.09128 3.19457,0.09128c2.51399,0 5.29521,-0.13831 7.61901,0.81132c2.28166,0.9324 4.43027,2.65277 5.57112,4.64604c0.27829,-1.60176 0.82426,-3.42934 2.36506,-4.44787zM239.59286,168.48684c-0.54097,-0.12792 -0.54096,-0.63508 -0.54096,-0.63508c0.05947,-2.57427 -2.82085,-5.20448 -5.51148,-6.31009c-2.07769,-0.85375 -4.66154,-0.67627 -6.90675,-0.67627c-0.96742,0 -1.89132,0.00217 -2.83685,-0.06086c0.09786,0.27167 0.13009,0.61008 0.23918,0.9006c0.49948,1.33019 0.84919,2.49128 0.94282,3.87852c0.19805,2.9338 2.5413,5.58115 5.22315,7.35046c1.7941,0.86816 4.00115,0.72974 6.02907,0.7352c0.71061,0.00191 1.75172,0.02726 2.38965,-0.30567c1.3902,-0.72555 1.069,-3.39872 0.97217,-4.87679z" fill="#4d934c" stroke-width="0.5"/><path d="M241.18519,170.73801c0.04389,-0.92667 -0.04093,-1.88314 -0.04093,-2.76469l-0.34637,-0.72738c0,0 -0.08872,-0.14682 -0.26545,-0.25768c-0.03096,-0.16205 -0.06991,-0.32677 -0.1156,-0.48733c0.76382,0.04508 0.84976,-0.59399 0.84976,-0.59399c0.18278,-1.40061 0.51417,-3.40871 1.93927,-4.3848c0.80782,-0.5533 1.81378,-0.46424 2.77415,-0.61185c2.46431,-0.37879 5.07563,-0.47277 7.58555,-0.73404c0.30302,-0.0822 0.61541,-0.14569 0.91085,-0.24469c0.1688,-0.05657 0.47381,-0.20504 0.69328,-0.33535c-0.15409,0.57889 0.13878,2.11527 0.13846,2.38857c-0.002,1.73137 -0.10668,3.35303 -1.07748,4.94204c-1.24087,2.03108 -3.32874,2.40303 -5.34583,3.71856c-2.13641,0.99502 -5.20296,2.2671 -7.28914,0.5149z" data-paper-data="{&quot;noHover&quot;:false,&quot;origItem&quot;:[&quot;Path&quot;,{&quot;applyMatrix&quot;:true,&quot;segments&quot;:[[[483.26746,342.25565],[0,0],[4.17237,3.50439]],[[497.74904,341.19291],[-4.27283,1.99005],[4.03418,-2.63105]],[[508.36285,333.83638],[-2.48175,4.06217],[1.94159,-3.17801]],[[510.52737,324.01529],[-0.00401,3.46273],[0.00064,-0.5466]],[[510.26323,319.25722],[-0.30818,1.15777],[-0.43894,0.26063]],[[508.87811,319.92958],[0.33761,-0.11313],[-0.59089,0.198]],[[507.06,320.4228],[0.60604,-0.16441],[-5.01984,0.52254]],[[491.99592,321.91392],[4.92862,-0.75759],[-1.92073,0.29523]],[[486.4853,323.11202],[1.61563,-1.1066],[-2.8502,1.95219]],[[482.63318,331.81244],[0.36557,-2.80121],[0,0]],[[480.93325,332.99264],[1.52764,0.09016],[0.09138,0.32111]],[[481.1636,333.96067],[-0.06192,-0.32409],[0.35346,0.22173]],[481.69376,334.47198],[[482.3837,335.91602],[0,0],[0,1.76311]],[[482.45085,341.41666],[0.08779,-1.85335],[0,0]]],&quot;closed&quot;:true,&quot;fillColor&quot;:[0,0,0,1],&quot;strokeWidth&quot;:0.5}]}" fill="#64be63" stroke-width="0.25"/><path d="M239.64224,168.49469c0.09682,1.47807 0.40598,4.17666 -0.98422,4.9022c-0.63792,0.33293 -1.68776,0.31533 -2.39837,0.31342c-2.02792,-0.00546 -4.27666,0.14021 -6.07076,-0.72795c-2.68185,-1.76931 -5.06059,-4.4768 -5.25864,-7.4106c-0.09364,-1.38724 -0.43539,-2.56561 -0.93488,-3.8958c-0.10908,-0.29051 -0.13956,-0.63123 -0.23742,-0.9029c0.94553,0.06303 1.87701,0.05332 2.84443,0.05332c2.24521,0 4.87536,-0.18616 6.95305,0.66759c2.69063,1.10561 5.60576,3.78769 5.54629,6.36196c0,0 -0.00045,0.51084 0.54052,0.63876z" data-paper-data="{&quot;noHover&quot;:false,&quot;origItem&quot;:[&quot;Path&quot;,{&quot;applyMatrix&quot;:true,&quot;segments&quot;:[[[479.18572,336.97367],[0,0],[-1.08194,-0.25584]],[[478.10379,335.70351],[0,0],[0.11894,-5.14855]],[[467.08082,323.08332],[5.38127,2.21122],[-4.15538,-1.70749]],[[453.26733,321.73078],[4.49042,0],[-1.93484,0]],[[447.59364,321.60905],[1.89105,0.12606],[0.19572,0.54335]],[[448.07199,323.41025],[-0.21817,-0.58103],[0.99896,2.66038]],[[449.95764,331.16729],[-0.18728,-2.77448],[0.3961,5.8676]],[[460.40394,345.8682],[-5.3637,-3.53861],[3.5882,1.73631]],[[472.46207,347.3386],[-4.05583,-0.01092],[1.42122,0.00383]],[[477.24136,346.72726],[-1.27584,0.66586],[2.78039,-1.45109]],[[479.18571,336.97368],[0.19365,2.95614],[0,0]]],&quot;closed&quot;:true,&quot;fillColor&quot;:[0,0,0,1],&quot;strokeWidth&quot;:0.5}]}" fill="#64be63" stroke-width="0.25"/><path d="M250.72479,137.61773c-0.0885,-0.6461 0.5576,-0.7346 0.5576,-0.7346l0.25111,-0.01873c2.84217,-1.05282 5.18938,-2.71815 6.17463,-5.70256c-0.32065,-0.58437 -0.64291,-1.09189 -1.01396,-1.34409c-0.65418,-0.44463 -1.55926,0.37695 -2.34913,0.33518c-0.01388,-0.00073 -0.02778,-0.00157 -0.04169,-0.00252c-0.29971,1.51209 -0.65688,2.5373 -1.74963,3.7404l-0.7991,0.43699c0,0 -0.57568,0.30641 -0.88208,-0.26926c-0.30641,-0.57566 0.26926,-0.88208 0.26926,-0.88208l0.60512,-0.31043c0.8463,-0.98611 1.05641,-1.80987 1.28943,-3.02974c-1.76894,-0.67332 -3.40202,-1.94635 -3.90704,0.95266c0,0 -0.03209,0.1709 -0.15139,0.31964c0.8803,2.28989 0.87338,5.25845 0.53093,7.08211c0,0 -0.03758,0.2001 -0.18255,0.35569c-0.04396,0.31171 -0.08415,0.65661 -0.14587,0.99427c0.67498,0.8123 2.11584,0.61046 3.20379,0.56486c2.75591,-0.11551 8.66028,-2.50778 7.05798,-6.2679c-0.34891,-0.29385 -0.65057,-0.7214 -0.92887,-1.19241c-1.28625,2.71426 -3.65733,4.37899 -6.52674,5.44222l-0.52723,0.0879c0,0 -0.64611,0.0885 -0.73461,-0.5576zM247.98055,138.95117c0.00068,-0.00046 0.00135,-0.00093 0.00202,-0.00138c0.06097,-0.42872 0.087,-0.83458 0.12233,-1.02273l0.06877,-0.36625c0,0 0.03471,-0.18486 0.16613,-0.33737c0.2578,-2.0776 0.0213,-4.49346 -0.91902,-6.34696c-0.30604,-0.60324 -1.47462,-1.81937 -2.24926,-1.7123c-0.67977,0.09396 -1.20056,0.69593 -1.91231,0.84302c-0.04477,0.02361 -0.12261,0.0677 -0.22224,0.12156c1.28037,0.46603 1.99717,1.64663 2.82995,2.86447l0.16501,0.45621c0,0 0.17899,0.6271 -0.4481,0.80608c-0.62709,0.17899 -0.80607,-0.4481 -0.80607,-0.4481l0.01255,-0.07796c-0.74552,-1.09024 -1.41253,-2.51034 -2.8699,-2.50217c0,0 -0.0323,-0.00066 -0.08235,-0.00888c0.01982,0.88794 -0.23019,1.07692 -0.78605,1.68525c1.67372,1.07034 3.6108,2.43379 4.03782,4.33721l-0.02178,0.36874c0,0 -0.12035,0.64093 -0.76129,0.52058c-0.64094,-0.12034 -0.52058,-0.76129 -0.52058,-0.76129l0.02407,0.12457c-0.23368,-1.52495 -2.33342,-2.80645 -3.73161,-3.66819c-0.31489,0.25269 -0.65009,0.47863 -0.9976,0.65537c-0.31444,0.15992 -1.34082,-0.10746 -1.0538,0.09763c1.74045,1.24364 2.20902,3.40792 4.14135,4.63956c1.24531,0.62432 3.75405,1.54368 5.17321,1.15336c0.20174,-0.05549 0.34339,-0.26968 0.44545,-0.55213c-0.0716,-0.12963 -0.25869,-0.55874 0.19333,-0.86784zM251.35236,127.52131c1.1533,0.39426 1.71066,1.2574 3.09206,1.33114c0.5146,0.02747 2.37596,-0.44288 2.80928,-0.21285c1.22077,0.64803 2.09648,3.38337 3.24731,4.4364c2.06548,4.85603 -4.05818,8.17038 -8.0697,8.33294c-1.34123,0.05435 -2.71333,0.13869 -3.7316,-0.56933c-1.40662,1.84188 -5.51212,0.34315 -7.1736,-0.48673c-1.81734,-1.15185 -2.47123,-2.41562 -3.6498,-4.13009c-0.4729,-0.68793 -1.3268,-1.10079 -1.01158,-2.23597c0.10314,-0.37147 0.70394,-0.31492 1.06051,-0.46149c0.44869,-0.18443 0.95858,-0.43793 1.41908,-0.75538c0.0175,-0.04312 0.04045,-0.08772 0.06968,-0.13372c0.14556,-0.22904 0.32585,-0.30219 0.48677,-0.30954c0.22491,-0.20995 0.41888,-0.43962 0.5619,-0.68811c0.45215,-0.78553 -0.94025,-1.2546 -0.15761,-2.20008c0.06709,-0.08105 2.18034,-0.47927 2.51671,-0.66003c1.29026,-0.24144 1.89952,-1.21516 3.37317,-0.70873c0.81378,0.27966 1.4578,0.80899 1.9604,1.49432c0.55378,-1.30226 1.69034,-2.55779 3.19702,-2.04274z" fill="#b452b6" stroke-width="0.5"/><path d="M251.48674,138.14153l0.52383,-0.09038c2.86942,-1.06324 5.17808,-2.67136 6.46434,-5.38563c0.27829,0.471 0.66087,0.86894 1.00977,1.16279c1.60231,3.76012 -4.35778,6.20309 -7.11369,6.3186c-1.08795,0.04559 -2.54733,0.2357 -3.22231,-0.57659c0.06172,-0.33766 0.09891,-0.68613 0.14287,-0.99784c0.14497,-0.1556 0.18174,-0.35682 0.18174,-0.35682c0.34244,-1.82367 0.35063,-4.84394 -0.52968,-7.13383c0.11929,-0.14873 0.15287,-0.32143 0.15287,-0.32143c0.50502,-2.89901 2.16293,-1.64021 3.93187,-0.96689c-0.23301,1.21987 -0.40369,2.1164 -1.24999,3.10251l-0.60003,0.30398c0,0 -0.57065,0.29566 -0.26424,0.87133c0.30641,0.57566 0.79901,0.24358 0.79901,0.24358l0.80636,-0.45087c1.09276,-1.2031 1.48681,-2.24497 1.78652,-3.75705c0.0139,0.00095 0.02817,0.00181 0.04206,0.00255c0.78986,0.04179 1.71189,-0.77507 2.36606,-0.33044c0.37106,0.2522 0.70344,0.76696 1.02409,1.35133c-0.98523,2.98441 -3.39741,4.70707 -6.23958,5.75987l-0.25215,0.01729c0,0 -0.57604,0.0371 -0.48754,0.6832c0.0885,0.6461 0.72783,0.55074 0.72783,0.55074z" data-paper-data="{&quot;noHover&quot;:false,&quot;origItem&quot;:[&quot;Path&quot;,{&quot;applyMatrix&quot;:true,&quot;segments&quot;:[[[505.99185,248.25291],[0.47434,1.42302],[-0.47434,-1.42302]],[506.94054,246.35555],[[507.50028,246.20662],[0,0],[5.97817,-3.58649]],[[519.03807,230.69422],[-0.9604,7.16484],[-0.97293,-1.18492]],[[516.17534,228.08615],[0.94587,0.41261],[-1.66758,-0.72745]],[[511.00713,229.84104],[1.80333,-0.24084],[-0.03171,0.00423]],[[510.91182,229.85303],[0.03183,-0.00376],[-0.03568,3.54548]],[[508.54433,239.05137],[1.9596,-3.18363],[0,0]],[506.92335,240.37845],[[504.815,240.14419],[0.93704,1.1713],[-0.93704,-1.1713]],[505.04926,238.03584],[[506.28543,237.0772],[0,0],[1.49457,-2.58847]],[[507.91425,229.68074],[-0.00894,2.85658],[-4.28473,-0.77122]],[[499.48631,233.49286],[-0.08893,-6.76795],[0,0]],[[499.27977,234.2797],[0.20654,-0.38687],[2.96207,4.80289]],[[503.48631,250.06429],[0,-4.26797],[0,0]],[[503.22464,250.94587],[0.26167,-0.41328],[0.03295,0.72332]],[[503.31694,253.25547],[-0.00381,-0.78952],[1.87069,1.54977]],[[510.7993,253.17243],[-2.4401,0.56491],[6.18103,-1.43098]],[[524.09404,236.00702],[5.21834,7.82004],[-0.91347,-0.51617]],[[521.48807,233.70575],[0.82906,0.94662],[-1.75556,6.68192]],[[509.04377,248.7791],[6.03532,-3.62161],[0,0]],[507.88922,249.2016]],&quot;closed&quot;:true}]}" fill="#b470b5" stroke-width="0.5"/><path d="M247.81439,139.85294c-0.10207,0.28247 -0.24713,0.49913 -0.44887,0.55462c-1.41916,0.39032 -3.9627,-0.5234 -5.20801,-1.14773c-1.93232,-1.23164 -2.43328,-3.43641 -4.17374,-4.68005c-0.28702,-0.20509 0.73934,0.0617 1.05376,-0.09822c0.34751,-0.17674 0.76908,-0.39648 1.08396,-0.64916c1.39819,0.86174 3.44988,2.09292 3.68355,3.61787l-0.02394,-0.12458c0,0 -0.12514,0.64177 0.51579,0.76212c0.64094,0.12034 0.7515,-0.51704 0.7515,-0.51704l0.06317,-0.29229c-0.42701,-1.90341 -2.4228,-3.32744 -4.09652,-4.39778c0.55587,-0.60832 0.82319,-0.81318 0.80338,-1.70112c0.05005,0.00822 0.08313,0.0085 0.08313,0.0085c1.45736,-0.00817 2.18231,1.43215 2.92783,2.52239l-0.01174,0.07972c0,0 0.09567,0.64694 0.72277,0.46795c0.62709,-0.17899 0.4506,-0.79395 0.4506,-0.79395l-0.16184,-0.44935c-0.83278,-1.21785 -1.50779,-2.37679 -2.78816,-2.8428c0.09964,-0.05385 0.17163,-0.18467 0.2164,-0.20828c0.71175,-0.1471 1.24802,-0.74688 1.92779,-0.84084c0.77464,-0.10709 1.96215,1.12159 2.26818,1.72482c0.94033,1.85351 1.18183,4.31989 0.92402,6.39749c-0.13142,0.15252 -0.16765,0.3398 -0.16765,0.3398l-0.07025,0.36831c-0.03534,0.18814 -0.06531,0.59854 -0.12628,1.02727c-0.00068,0.00045 -0.00136,0.00092 -0.00204,0.00138c-0.45202,0.3091 -0.26842,0.74134 -0.19682,0.87097z" data-paper-data="{&quot;noHover&quot;:false,&quot;origItem&quot;:[&quot;Path&quot;,{&quot;applyMatrix&quot;:true,&quot;segments&quot;:[[[500.35422,252.4322],[-0.89064,0.89064],[0.00133,-0.00133]],[[500.3582,252.42822],[-0.00133,0.00132],[-0.04416,-0.99507]],[[500.20059,250.06429],[0,0.44033],[0,0]],[500.20059,249.20714],[[500.43293,248.37394],[-0.23234,0.40057],[-0.29913,-4.8061]],[[495.66114,234.41598],[2.91252,3.79091],[-0.94789,-1.23377]],[[489.84955,231.49992],[1.70572,-0.5709],[-1.4968,0.50098]],[[485.88439,234.21744],[1.54655,-0.63465],[-0.09118,0.07238]],[[485.43357,234.58657],[0.20238,-0.16405],[3.09227,0.51]],[[493.04697,239.86077],[-2.39957,-2.39957],[0,0]],[493.61366,240.82204],[[492.94284,242.8345],[1.34164,-0.67082],[-1.34164,0.67082]],[490.93038,242.16368],[[490.92565,241.98209],[0,0],[-2.14814,-2.14814]],[[483.37576,237.54388],[3.29108,-0.63711],[0,0]],[[483.18582,237.55877],[0.11666,-0.00268],[0.42172,1.99888]],[[482.12423,241.70213],[0.99839,-1.61114],[4.238,1.70915]],[[493.09331,249.79291],[-1.77329,-4.12164],[0,0]],[493.20059,250.63571],[[491.70059,252.13571],[1.5,0],[-1.5,0]],[490.20059,250.63571],[[490.30788,250.90709],[0,0],[-1.17558,-3.34814]],[[480.31501,244.19874],[3.52658,1.35454],[-0.60456,0.70489]],[[478.338,246.10374],[0.71057,-0.54705],[-0.64294,0.49499]],[[475.99722,246.77177],[-0.73591,-0.3418],[4.46243,2.0726]],[[487.32867,255.50208],[-4.89106,-1.96403],[3.08019,0.88273]],[[499.51294,255.91339],[-3.04251,1.4848],[0.43251,-0.21107]],[[500.28556,254.47612],[-0.11084,0.68187],[-0.21688,-0.26265]]],&quot;closed&quot;:true}]}" fill="#b470b5" stroke-width="0.5"/><path d="M251.40615,138.64059c0.01298,-0.00903 0.02591,-0.01804 0.03879,-0.02704c-0.01567,0.00974 -0.03135,0.01951 -0.04702,0.02929zM254.07011,137.08793c0.48768,0.43295 0.05472,0.92063 0.05472,0.92063c-0.46897,0.52621 -0.93526,0.92977 -1.46146,1.31914c1.16823,-0.43438 2.68982,-1.45477 2.28412,-2.73302c-0.10914,-0.3439 -0.49259,-0.38813 -0.92019,-0.37644c0.03617,0.04175 0.07041,0.09152 0.10183,0.15054c0.17422,0.32733 0.06327,0.5676 -0.06489,0.71399c0.00196,0.0017 0.00391,0.00343 0.00587,0.00517zM249.43175,138.63779l0.48721,-0.58652c1.00751,-0.68895 2.02184,-1.25341 3.09039,-1.82494c-1.55621,-0.17825 -2.72739,1.18745 -3.72663,2.31406c0.00071,0.04353 0.00088,0.08713 0.00048,0.13077c0,0 -0.01334,0.652 -0.66535,0.63866c-0.03535,-0.00072 -0.06873,-0.00332 -0.10027,-0.0076c-0.17605,0.0904 -0.45169,0.14846 -0.73122,-0.12456c-0.02181,-0.02131 -0.0416,-0.04262 -0.05952,-0.06392c-0.05584,0.03778 -0.11116,0.06351 -0.1651,0.07978c0.04926,0.10432 0.07107,0.23792 0.03907,0.40831c-0.12034,0.64094 -0.76129,0.52058 -0.76129,0.52058l-0.71414,-0.14312c-1.96895,-0.73947 -3.42225,-2.37145 -4.79701,-4.01158l-0.78881,-0.47755c-0.23391,-0.13424 -0.36881,-0.40606 -0.31623,-0.6861c0.06646,-0.35398 0.40731,-0.58705 0.76129,-0.52059l0.7325,0.13755c1.31697,0.29501 1.82184,-0.6765 3.19125,-0.65822c2.01823,0.02694 3.53423,1.43967 4.11558,3.22835c1.46568,-1.41602 2.8528,-2.3174 5.32155,-1.84186c0.60924,0.11736 1.39561,0.1653 1.75146,0.82915c1.30135,2.42769 -2.29236,4.54456 -4.03611,4.84901c-1.28014,-0.02142 -2.56015,-0.04935 -3.84019,-0.07555l0.39247,0.00818c0,0 -0.31686,0.56998 -0.88684,0.25313c-0.56999,-0.31686 -0.25313,-0.88684 -0.25313,-0.88684l0.77418,-0.67846c0.40623,0.00832 0.81244,0.01636 1.21867,0.02452c-0.37851,-0.38116 -0.03429,-0.83463 -0.03429,-0.83463zM246.52875,138.60582c-0.57681,-0.85789 -1.33852,-1.44308 -2.26337,-1.89923c0,0 -0.58322,-0.29179 -0.29141,-0.87501c0.04259,-0.08511 0.09137,-0.15159 0.14365,-0.20306c0.0024,-0.02907 0.00648,-0.05936 0.01241,-0.0909c0.00887,-0.04726 0.02058,-0.09036 0.03464,-0.12968c-0.38201,0.09035 -0.78141,0.19905 -1.20412,0.27021c1.17794,0.91443 2.47665,2.67461 3.61302,3.07627l0.12091,0.02054zM245.82061,135.32316c0.33388,0.15421 0.64055,0.34776 0.92545,0.57239c-0.30455,-0.30678 -0.61151,-0.48325 -0.92545,-0.57239z" fill="#b53f33" stroke-width="0.5"/><path d="M254.06888,137.03298c0.12816,-0.14639 0.22988,-0.28709 0.05567,-0.61442c-0.03142,-0.05902 -0.05983,-0.20855 -0.09599,-0.25031c0.4276,-0.0117 0.83892,0.04187 0.94807,0.38577c0.40569,1.27827 -1.17949,2.37553 -2.3477,2.80991c0.52621,-0.38936 0.98218,-0.85141 1.45115,-1.37762c0,0 0.47272,-0.41566 -0.01496,-0.84863c-0.00197,-0.00174 0.00573,-0.103 0.00378,-0.10471z" data-paper-data="{&quot;noHover&quot;:false,&quot;origItem&quot;:[&quot;Path&quot;,{&quot;applyMatrix&quot;:true,&quot;segments&quot;:[[[254.71148,121.3849],[-0.00247,-0.00089],[0.61336,0.22152]],[[255.10332,122.21978],[0,0],[-0.2407,0.66249]],[[254.23442,123.98642],[0.34455,-0.55658],[0.92423,-0.8362]],[[255.34374,120.60174],[0.85031,1.03707],[-0.22876,-0.27901]],[[254.34957,120.59293],[0.39286,-0.16925],[0.04906,0.02539]],[[254.49992,120.69504],[-0.05105,-0.04319],[0.28307,0.23951]],[[254.70411,121.38227],[0.06482,-0.18345],[0.00245,0.00086]]],&quot;closed&quot;:true}]}" fill="#ff8b66" stroke-width="0.5"/><path d="M246.72867,138.81145l-0.12203,-0.01953c-1.13637,-0.40166 -2.51063,-2.22573 -3.68857,-3.14016c0.4227,-0.07116 0.84143,-0.19779 1.22344,-0.28814c-0.01406,0.03932 0.02298,0.1697 0.01411,0.21695c-0.00592,0.03155 -0.00842,0.06085 -0.01082,0.08992c-0.05228,0.05147 -0.09477,0.11311 -0.13735,0.19822c-0.2918,0.58321 0.30576,0.85244 0.30576,0.85244c0.92486,0.45614 1.60462,0.99023 2.18143,1.84812z" data-paper-data="{&quot;noHover&quot;:false,&quot;origItem&quot;:[&quot;Path&quot;,{&quot;applyMatrix&quot;:true,&quot;segments&quot;:[[[248.26878,125.58819],[0,0],[-0.85355,-0.58321]],[[245.46291,124.66242],[1.02803,0.08112],[0,0]],[[244.86811,123.9576],[-0.05502,0.64981],[0.00803,-0.09483]],[[244.92633,123.71578],[-0.02949,0.06717],[-0.00854,-0.02789]],[[244.90418,123.62674],[0.00618,0.0315],[-0.00926,-0.04718]],[[244.88832,123.49345],[0.0015,0.04174],[-0.32138,0.22542]],[[243.86995,124.19045],[0.36627,-0.22267],[1.43287,0.41307]],[[248.36545,125.70962],[-1.20432,0.04783],[0,0]],[248.48537,125.68392]],&quot;closed&quot;:true}]}" fill="#ff8b66" stroke-width="0.5"/><path d="M241.15352,156.69698c-0.88388,-0.88388 0,-1.76777 0,-1.76777l0.91699,-0.90973c0.33333,-0.27778 0.66667,-0.55556 1,-0.83333c0,0 0.96028,-0.80023 1.76051,0.16005c0.80023,0.96028 -0.16005,1.76051 -0.16005,1.76051c-0.33333,0.27778 -0.66667,0.55556 -1,0.83333l-0.74968,0.75694c0,0 -0.88388,0.88388 -1.76777,0z" fill="#4d934c" stroke-width="0.5"/><path d="M241.00118,171.76446c-1.11803,0.55902 -1.67705,-0.55902 -1.67705,-0.55902l-0.28898,-0.73731c-0.28466,-2.30912 -0.26297,-4.33619 -1.09673,-6.54947c0,0 -0.4389,-1.17041 0.73151,-1.60932c1.17041,-0.4389 1.60932,0.73151 1.60932,0.73151c0.89885,2.40683 0.91947,4.61885 1.2366,7.11719l0.04435,-0.07064c0,0 0.55902,1.11803 -0.55902,1.67705z" fill="#4d934c" stroke-width="0.5"/><path d="M226.33936,168.8941c0,-0.75 0.75,-0.75 0.75,-0.75h0.28571c2.78997,0 5.97665,0.39048 8.70807,-0.29836c-2.45984,-0.89736 -5.2771,-0.85888 -7.69553,-2.47046l-0.33731,-0.03929c0,0 -0.72761,-0.1819 -0.54571,-0.90951c0.1819,-0.72761 0.90951,-0.54571 0.90951,-0.54571l0.80555,0.24643c1.326,0.8844 2.72912,1.28548 4.13022,1.60834c0.02891,-0.72466 0.09086,-1.47757 -0.17238,-2.14286l-0.61848,-0.59682c0,0 -0.53033,-0.53033 0,-1.06066c0.53033,-0.53033 1.06066,0 1.06066,0l0.81009,0.83175c0.46123,1.14748 0.413,2.09173 0.40974,3.30139c1.79593,0.41151 3.5415,0.93283 5.06589,2.43829c0,0 0.53033,0.53033 0,1.06066c-0.53033,0.53033 -1.06066,0 -1.06066,0c-0.4467,-0.45376 -0.925,-0.81306 -1.42706,-1.10478c0.03201,0.55764 -0.55085,0.72417 -0.55085,0.72417c-2.99053,0.83398 -6.39937,0.45743 -9.49176,0.45743h-0.28571c0,0 -0.75,0 -0.75,-0.75z" fill="#4d934c" stroke-width="0.5"/><path d="M249.83936,169.03695c0,0.75 -0.75,0.75 -0.75,0.75h-0.57143c-1.98206,-0.00551 -3.18339,-0.8056 -4.9334,-1.41237c-0.92515,0.45391 -1.72741,1.05878 -2.2997,1.93554c0,0 -0.41603,0.62404 -1.04006,0.20801c-0.62404,-0.41603 -0.20801,-1.04006 -0.20801,-1.04006c0.8217,-1.21209 1.91635,-1.94433 3.13599,-2.46078c0.12128,-0.10482 0.26193,-0.14493 0.38691,-0.15538c0.70675,-0.26935 1.44884,-0.47799 2.19913,-0.67431c0.01069,-0.23718 0.13511,-0.42382 0.13511,-0.42382c0.92078,-1.38117 1.77592,-2.65366 2.95085,-3.82859l0.76635,-0.4262c0,0 0.67082,-0.33541 1.00623,0.33541c0.33541,0.67082 -0.33541,1.00623 -0.33541,1.00623l-0.37651,0.14522c-0.82538,0.82538 -1.47606,1.70106 -2.11404,2.63367c0.00235,0.00623 0.00462,0.01249 0.0068,0.0188c0.9425,-0.27115 1.85865,-0.59306 2.69309,-1.06455l0.49634,-0.50573c0,0 0.53033,-0.53033 1.06066,0c0.53033,0.53033 0,1.06066 0,1.06066l-0.64651,0.63713c-1.59961,0.92195 -3.7593,1.25521 -5.7441,1.82992c0.87277,0.37343 1.70856,0.68489 2.86028,0.68119h0.57143c0,0 0.75,0 0.75,0.75z" fill="#4d934c" stroke-width="0.5"/><path d="M229.84711,155.41583c0.33541,-0.67082 1.00623,-0.33541 1.00623,-0.33541l0.36633,0.18964c1.7325,1.15666 4.089,1.95557 5.54288,3.37942c0,0 0.53033,0.53033 0,1.06066c-0.53033,0.53033 -1.06066,0 -1.06066,0c-1.30782,-1.34517 -3.70123,-2.1183 -5.31427,-3.19201l-0.2051,-0.09607c0,0 -0.67082,-0.33541 -0.33541,-1.00623z" fill="#4d934c" stroke-width="0.5"/></g></g></svg>