<svg version="1.1" xmlns="http://www.w3.org/2000/svg" xmlns:xlink="http://www.w3.org/1999/xlink" width="54.45605" height="77.07081" viewBox="0,0,54.45605,77.07081"><g transform="translate(-212.40029,-112.35644)"><g data-paper-data="{&quot;isPaintingLayer&quot;:true}" fill-rule="nonzero" stroke="none" stroke-width="0.5" stroke-linecap="butt" stroke-linejoin="miter" stroke-miterlimit="10" stroke-dasharray="" stroke-dashoffset="0" style="mix-blend-mode: normal"><path d="M214.61612,161.36612c0.88388,-0.88388 1.76777,0 1.76777,0l0.61612,0.63388c3.33789,4.53602 10.50076,4.68126 15.09735,7.15197c2.86318,1.53897 5.43789,4.05469 7.19195,6.8357c-0.11707,-0.64117 -0.18388,-1.02585 -0.18388,-1.02585c0.71928,-7.86007 -3.06458,-15.3459 -1.99577,-23.23956c0.22446,-1.65772 0.98105,-3.22681 1.51774,-4.79646c1.55854,-2.36667 2.76208,-4.79675 4.54681,-7.03168l0.57609,-0.76913c0,0 0.75,-1 1.75,-0.25c1,0.75 0.25,1.75 0.25,1.75l-0.62391,0.83087c-1.67568,2.09049 -2.76865,4.37203 -4.25319,6.56832c-3.00073,9.3009 1.57032,17.77323 0.72198,27.16398c0,0 2.38682,13.74486 1.14196,13.63169c-0.80301,-0.073 -2.0812,-5.81819 -2.88739,-9.88738c-0.08121,0.06644 -0.17735,0.12887 -0.29072,0.18555c-1.11803,0.55901 -1.67705,-0.55902 -1.67705,-0.55902c-1.41911,-2.9175 -4.11443,-5.61859 -6.97932,-7.21098c-1.44455,-0.80292 -3.34365,-0.80597 -4.881,-1.44318c-3.64731,-1.51174 -8.58646,-3.20533 -11.02165,-6.40485l-0.38388,-0.36612c0,0 -0.88388,-0.88388 0,-1.76777z" fill="#3b7839"/><path d="M243.38171,182.14135c3.21708,3.29805 7.8714,0.8727 11.16594,-1.00017c3.11053,-2.47613 6.27017,-3.10038 8.18371,-6.92337c1.49705,-2.99089 1.66585,-5.98397 1.66894,-9.24281c0.00049,-0.51442 -0.44128,-3.38831 -0.20366,-4.47791c-0.33844,0.24528 -0.80768,0.5263 -1.06799,0.63277c-0.4556,0.18634 -0.93456,0.30945 -1.40184,0.46418c-3.87052,0.49177 -7.81489,0.69034 -11.61507,1.40332c-1.48097,0.27785 -3.00321,0.08611 -4.24893,1.12755c-2.19763,1.83724 -2.68829,5.55186 -2.97016,8.18813c0,0 -0.13284,1.19556 -1.31072,1.11071c0.07046,0.3022 0.12987,0.60602 0.17761,0.91103c0.27253,0.20867 0.40878,0.48121 0.40878,0.48121l0.53197,1.35901c0,1.6593 0.11947,3.43254 0.05178,5.17676zM244.23778,162.2251c1.71259,-1.38182 3.33138,-1.29399 5.35108,-1.67245c3.79974,-0.71202 7.72286,-0.92411 11.58493,-1.39668c1.02146,-0.34366 3.4563,-1.88611 4.45968,-1.28659c1.401,0.8371 0.98637,3.0015 1.06368,4.21702c0.29302,4.60663 0.4054,8.97527 -1.72791,13.24581c-2.14718,4.29829 -5.57611,5.11007 -9.0163,7.87662c-4.27568,2.45398 -9.41011,4.59045 -13.6154,1.3185c-0.21535,0.85284 -0.53106,1.67439 -0.98922,2.44503c-1.32951,2.23625 -3.93917,2.44564 -6.29803,2.45265c-3.75195,0.01114 -7.36583,0.04892 -10.70265,-1.81618c-4.29403,-3.41594 -7.88741,-8.26927 -8.92379,-13.79225c-0.29779,-1.58695 -0.02077,-3.19292 -0.39012,-4.75438c-0.51403,-2.17314 -1.24564,-4.24116 -1.80242,-6.3777l-0.09905,0.04952l-0.58875,-1.1775c-0.09145,-0.17371 -0.14321,-0.37157 -0.14321,-0.58151c0,-0.69036 0.55964,-1.25 1.25,-1.25c0.12924,0 0.2539,0.01961 0.37116,0.05603l1.30252,0.37215c1.65607,0.20333 3.25555,0.17182 4.92631,0.17182c3.8768,0 8.16568,-0.26032 11.74919,1.52711c3.51852,1.75501 6.83187,4.99315 8.59117,8.74495c0.42914,-3.01489 1.27108,-6.45484 3.64712,-8.37196zM240.23451,177.17038c-0.83422,-0.24078 -0.83422,-1.19538 -0.83422,-1.19538c0.09171,-4.8454 -4.34999,-9.79608 -8.49919,-11.8771c-3.20398,-1.60695 -7.1885,-1.2729 -10.65081,-1.2729c-1.49185,0 -2.91659,0.00408 -4.37467,-0.11456c0.15091,0.51136 0.20061,1.14832 0.36883,1.69514c0.77024,2.50373 1.30952,4.68918 1.45392,7.3003c0.30541,5.52211 3.91891,10.50506 8.05456,13.83531c2.76666,1.63407 6.17013,1.37354 9.29735,1.38382c1.09582,0.0036 2.70131,0.05131 3.68504,-0.57534c2.1438,-1.36565 1.64849,-6.3972 1.49918,-9.17928z" fill="#46ab44"/><path d="M242.71492,181.38522c0.06769,-1.74422 -0.06117,-3.53263 -0.06117,-5.19194l-0.53395,-1.36526c0,0 -0.1368,-0.27494 -0.40932,-0.48362c-0.04774,-0.30501 -0.10777,-0.61283 -0.17822,-0.91503c1.17788,0.08485 1.31041,-1.11544 1.31041,-1.11544c0.28187,-2.63627 0.78928,-6.38913 2.98691,-8.22637c1.24572,-1.04144 2.78617,-0.86004 4.26714,-1.13789c3.80018,-0.71298 7.79149,-0.90236 11.662,-1.39413c0.46728,-0.15473 0.94822,-0.27612 1.40382,-0.46246c0.26031,-0.10647 0.73034,-0.38673 1.06878,-0.63201c-0.23762,1.08961 0.21183,3.97294 0.21134,4.48736c-0.00309,3.25884 -0.16536,6.28895 -1.66241,9.27984c-1.91354,3.82299 -5.11354,4.48605 -8.22408,6.96219c-3.29454,1.87287 -7.99201,4.28501 -11.20909,0.98696z" data-paper-data="{&quot;noHover&quot;:false,&quot;origItem&quot;:[&quot;Path&quot;,{&quot;applyMatrix&quot;:true,&quot;segments&quot;:[[[486.76341,364.2827],[0,0],[6.43417,6.5961]],[[509.0953,362.28236],[-6.58909,3.74574],[6.22107,-4.95227]],[[525.46271,348.43561],[-3.82707,7.64598],[2.99409,-5.98179]],[[528.80059,329.95],[-0.00619,6.51768],[0.00098,-1.02883]],[[528.39327,320.99417],[-0.47525,2.17922],[-0.67689,0.49056]],[[526.2573,322.2597],[0.52061,-0.21294],[-0.91119,0.37269]],[[523.45361,323.18807],[0.93456,-0.30946],[-7.74103,0.98354]],[[500.22348,325.99471],[7.60036,-1.42596],[-2.96194,0.55571]],[[491.72562,328.24981],[2.49145,-2.08288],[-4.39527,3.67449]],[[485.7853,344.62608],[0.56374,-5.27254],[0,0]],[[483.16387,346.8475],[2.35575,0.16969],[0.14092,0.6044]],[[483.51909,348.66956],[-0.09549,-0.61002],[0.54505,0.41735]],[484.33666,349.63197],[[485.40059,352.35],[0,0],[0,3.31861]],[[485.50416,362.70353],[0.13538,-3.48844],[0,0]]],&quot;closed&quot;:true}]}" fill="#64be63"/><path d="M238.76919,186.38646c-0.98372,0.62665 -2.59826,0.58556 -3.69408,0.58195c-3.12722,-0.01029 -6.56635,0.25565 -9.333,-1.37842c-4.13566,-3.33024 -7.78623,-8.37632 -8.09163,-13.89843c-0.14441,-2.61112 -0.67339,-4.81521 -1.44362,-7.31894c-0.16822,-0.54682 -0.21588,-1.18597 -0.36679,-1.69733c1.45808,0.11864 2.89093,0.10793 4.38278,0.10793c3.46231,0 7.48678,-0.34069 10.69076,1.26626c4.1492,2.08103 8.62815,7.08521 8.53644,11.93061c0,0 -0.00066,0.95903 0.83356,1.1998c0.14932,2.78208 0.62939,7.84091 -1.51441,9.20656z" data-paper-data="{&quot;noHover&quot;:false,&quot;origItem&quot;:[&quot;Path&quot;,{&quot;applyMatrix&quot;:true,&quot;segments&quot;:[[[480.46902,354.34075],[0.29864,5.56416],[-1.66843,-0.48155]],[[478.80059,351.95],[0,0],[0.18343,-9.6908]],[[461.80221,328.19579],[8.29841,4.16205],[-6.40797,-3.21391]],[[440.50059,325.65],[6.92462,0],[-2.98369,0]],[[431.75125,325.42087],[2.91616,0.23729],[0.30182,1.02272]],[[432.48892,328.81114],[-0.33644,-1.09364],[1.54047,5.00746]],[[435.39677,343.41175],[-0.28882,-5.22225],[0.61081,11.04422]],[[451.50589,371.08236],[-8.27131,-6.66049],[5.53331,3.26814]],[[470.10059,373.85],[-6.25444,-0.02057],[2.19164,0.00721]],[[477.47067,372.69931],[-1.96745,1.25331],[4.2876,-2.7313]]],&quot;closed&quot;:true}]}" fill="#64be63"/><path d="M250.9003,125.825c1.25,0 1.25,1.25 1.25,1.25v0.4c-0.01655,2.15548 -0.82863,3.56006 -1.66529,5.02237c1.49937,-0.52243 3.0812,-0.74552 4.49296,-0.46995c0.9033,0.17631 2.13035,0.08128 2.62442,0.85777c0.305,0.47933 -0.88783,3.22394 -1.33001,3.77567c-1.69588,2.116 -4.21649,2.79643 -6.81222,3.1382c1.06105,0.00182 2.11572,0.09062 3.1024,0.2275c0.98299,0.13636 2.29639,-0.26337 2.93567,0.49571c0.9672,1.14846 -0.57932,3.23911 -1.18891,4.09056c-2.90536,4.05815 -6.35425,4.2664 -10.92041,4.90904c-1.37149,-0.01214 -2.29192,-0.12364 -3.05519,-0.48276c-1.45843,0.96377 -3.66147,1.20643 -5.8068,0.87383c-2.24711,-0.34838 -3.87591,-1.8298 -5.2621,-3.50815c-2.49972,-1.67109 -3.28181,-3.72127 -3.57198,-6.60645c-0.09475,-0.94217 -0.66151,-2.12446 -0.04185,-2.84049c0.52889,-0.61113 4.34572,0.56204 5.21523,0.67821c1.52942,0.20434 3.13077,-0.03155 4.63431,0.20508c3.0911,0.48648 4.44389,2.98218 5.91253,5.3227c1.04999,-1.66402 2.75492,-2.57941 4.67999,-3.02085c-0.48298,0.04882 -0.95673,0.10272 -1.41598,0.16944l-1.37678,0.01256c0,0 -1.25,0 -1.25,-1.25c0,-0.26801 0.05747,-0.47857 0.14776,-0.64397c-1.74863,-1.0512 -2.92952,-2.61116 -2.94776,-5.15602c-0.00853,-1.19043 -0.17343,-3.80759 0.92994,-4.62177c1.23056,-0.90803 3.01797,0.17799 4.07908,0.70373c1.66508,0.825 2.82122,1.83444 3.51047,3.15973c0.91706,-1.53832 1.90184,-2.87712 1.88052,-5.04169v-0.4c0,0 0,-1.25 1.25,-1.25zM252.65783,136.40275c0.29725,-0.17907 1.55277,-1.30385 2.25673,-1.92593c-0.82339,0.2324 -2.43661,0.15327 -2.75357,0.2207c-1.27081,0.27035 -2.5884,0.81007 -3.63608,1.60583c-0.06766,0.36066 -0.31564,1.02165 -1.22462,1.02165c-0.05037,0 -0.09871,-0.00203 -0.1451,-0.00592c0.00698,0.10263 0.00072,0.20094 -0.01228,0.29005c1.95453,-0.11944 3.99938,-0.29337 5.51492,-1.20638zM243.14128,131.59303c-0.52508,-0.26563 -1.17338,-1.37113 -1.52093,-0.89626c-0.42476,0.58038 0.04638,4.11728 0.61704,4.75098c0.74807,0.83069 1.94807,1.0644 2.63296,2.05353l-0.08809,-0.58528c0,0 0.28265,-0.56531 0.84796,-0.69099c-0.06178,-0.541 0.32593,-0.97051 0.37999,-1.02747c-0.19441,-1.76217 -1.09596,-2.70758 -2.86893,-3.6045zM238.39713,143.86232c0.19588,-0.04897 0.36803,-0.05839 0.51901,-0.03976c0.00383,-0.01183 0.00779,-0.02349 0.01191,-0.03499c-0.89985,-1.58094 -1.94829,-3.25081 -3.82797,-3.47871c-0.95218,-0.11544 -1.92041,0.07752 -2.87744,0.01372c-0.90516,-0.06035 -2.58047,-0.12354 -3.81048,-0.4322c0.12793,0.90031 0.03359,2.02302 0.08452,2.22239c0.2558,1.00129 1.69172,1.93559 2.43912,2.43245c0.82294,0.97934 1.69657,2.02625 2.88919,2.59522c1.35796,0.64784 3.3646,0.80302 4.59282,0.18987c-0.17767,-0.22999 -0.36205,-0.48323 -0.55755,-0.76193l-0.37261,-1.1902c0,0 -0.30318,-1.21268 0.9095,-1.51585zM243.21169,147.02815c1.54819,-0.22483 3.12619,-0.33098 4.66751,-0.58344c1.62556,-0.26626 2.64663,-1.08986 3.64502,-2.35058c0.41796,-0.52778 0.72804,-1.149 1.16497,-1.65683c-3.11965,1.07389 -8.4486,-1.60449 -9.58698,2.9811c0,0 -0.25628,0.897 -1.10095,0.91977c-0.02452,0.22639 -0.06628,0.44156 -0.12399,0.64574c0.33766,0.04911 0.76089,0.05177 1.33442,0.04424z" fill="#4d934c"/><path d="M247.09654,137.62782c0.013,-0.08911 0.01815,-0.19046 0.01117,-0.29309c0.04639,0.00389 0.09494,0.00654 0.14531,0.00654c0.90897,0 1.15451,-0.67208 1.22216,-1.03274c1.04767,-0.79576 2.44719,-1.37892 3.71801,-1.64927c0.31696,-0.06743 1.94436,0.03127 2.76774,-0.20113c-0.70396,0.62207 -1.95704,1.77634 -2.25428,1.95541c-1.51554,0.913 -3.65558,1.09484 -5.61011,1.21428z" data-paper-data="{&quot;noHover&quot;:false,&quot;origItem&quot;:[&quot;Path&quot;,{&quot;applyMatrix&quot;:true,&quot;segments&quot;:[[[504.81565,275.80549],[-3.03108,1.82601],[0.59449,-0.35814]],[[509.32911,271.95364],[-1.40792,1.24414],[-1.64678,0.46481]],[[503.82198,272.39503],[0.63391,-0.13486],[-2.54162,0.5407]],[[496.54983,275.6067],[2.09535,-1.59152],[-0.13531,0.72132]],[[494.10059,277.65],[1.81795,0],[-0.10074,0]],[[493.81039,277.63815],[0.09279,0.00779],[0.01396,0.20526]],[[493.78582,278.21825],[0.026,-0.17822],[3.90906,-0.23888]]],&quot;closed&quot;:true}]}" fill="#58a657"/><path d="M246.05479,135.22019c-0.05406,0.05696 -0.45356,0.50156 -0.39177,1.04256c-0.56531,0.12568 -0.86362,0.7002 -0.86362,0.7002l0.08656,0.58581c-0.68489,-0.98912 -1.93691,-1.23607 -2.68498,-2.06677c-0.57066,-0.63369 -1.03209,-4.24713 -0.60733,-4.8275c0.34754,-0.47486 1.01079,0.6243 1.53588,0.88993c1.77298,0.89692 2.73085,1.91359 2.92526,3.67576z" data-paper-data="{&quot;noHover&quot;:false,&quot;origItem&quot;:[&quot;Path&quot;,{&quot;applyMatrix&quot;:true,&quot;segments&quot;:[[[485.78256,266.18607],[3.54595,1.79383],[-1.05017,-0.53126]],[[482.74071,264.39354],[0.69508,-0.94972],[-0.84952,1.16075]],[[483.97479,273.89549],[-1.14133,-1.26739],[1.49614,1.66138]],[[489.2407,278.00254],[-1.36977,-1.97824],[0,0]],[489.06452,276.83197],[[490.76045,275.45],[-1.13062,0.25135],[-0.12357,-1.082]],[[491.52042,273.39507],[-0.10812,0.11392],[-0.38883,-3.52434]]],&quot;closed&quot;:true}]}" fill="#58a657"/><path d="M241.83111,147.00312c0.0577,-0.20417 0.09778,-0.42403 0.1223,-0.65042c0.84467,-0.02277 1.09946,-0.92622 1.09946,-0.92622c1.13838,-4.58559 6.56269,-1.93484 9.68234,-3.00873c-0.43693,0.50783 -0.74359,1.14114 -1.16155,1.66893c-0.99839,1.26072 -2.05244,2.139 -3.678,2.40526c-1.54133,0.25245 -3.17933,0.33593 -4.72752,0.56076c-0.57353,0.00753 -0.99936,-0.00046 -1.33702,-0.04957z" data-paper-data="{&quot;noHover&quot;:false,&quot;origItem&quot;:[&quot;Path&quot;,{&quot;applyMatrix&quot;:true,&quot;segments&quot;:[[[485.92337,297.05629],[-1.14707,0.01506],[3.09638,-0.44966]],[[495.25839,295.88942],[-3.08265,0.50491],[3.25113,-0.53251]],[[502.54842,291.18826],[-1.99678,2.52144],[0.83592,-1.05557]],[[504.87836,287.8746],[-0.87386,1.01566],[-6.2393,2.14779]],[[485.7044,293.8368],[2.27676,-9.17118],[0,0]],[[483.5025,295.67634],[1.68934,-0.04555],[-0.04903,0.45279]],[[483.25453,296.96781],[0.11541,-0.40835],[0.67531,0.09822]]],&quot;closed&quot;:true}]}" fill="#58a657"/><path d="M237.53384,145.39724l0.36813,1.19868c0.1955,0.27871 0.37828,0.53423 0.55595,0.76422c-1.22822,0.61316 -3.27268,0.4781 -4.63064,-0.16974c-1.19262,-0.56896 -2.11683,-1.65273 -2.93976,-2.63207c-0.7474,-0.49687 -2.18258,-1.45979 -2.43838,-2.46108c-0.05093,-0.19937 0.05082,-1.3364 -0.07711,-2.23671c1.23002,0.30866 2.92624,0.35554 3.8314,0.41588c0.95703,0.0638 1.96339,-0.12927 2.91557,-0.01383c1.87968,0.2279 2.95919,1.94391 3.85904,3.52484c-0.00412,0.01149 -0.00808,0.02348 -0.01191,0.03531c-0.15097,-0.01863 -0.32313,-0.00877 -0.519,0.0402c-1.21268,0.30317 -0.91329,1.53429 -0.91329,1.53429z" data-paper-data="{&quot;noHover&quot;:false,&quot;origItem&quot;:[&quot;Path&quot;,{&quot;applyMatrix&quot;:true,&quot;segments&quot;:[[[476.29425,290.72464],[-2.42536,0.60634],[0.39176,-0.09794]],[[477.33226,290.64512],[-0.30195,-0.03726],[0.00765,-0.02367]],[[477.35608,290.57515],[-0.00823,0.02298],[-1.7997,-3.16187]],[[469.70014,283.61772],[3.75937,0.4558],[-1.90437,-0.23089]],[[463.94525,283.64517],[1.91407,0.1276],[-1.81031,-0.12069]],[[456.32428,282.78077],[2.46004,0.61732],[0.25586,1.80062]],[[456.49332,287.22554],[-0.10186,-0.39873],[0.51159,2.00258]],[[461.37155,292.09045],[-1.49479,-0.99373],[1.64587,1.95868]],[[467.14993,297.28088],[-2.38524,-1.13793],[2.71592,1.29569]],[[476.33557,297.66062],[-2.45644,1.22631],[-0.35534,-0.45998]],[[475.22047,296.13675],[0.391,0.55742],[0,0]],[474.47524,293.75634]],&quot;closed&quot;:true}]}" fill="#58a657"/><path d="M251.80035,123.11614c-0.32153,-0.56736 0.24584,-0.88889 0.24584,-0.88889l0.22632,-0.11041c2.25004,-2.03069 3.81343,-4.44699 3.62315,-7.58406c-0.5143,-0.42403 -1.00162,-0.77609 -1.4397,-0.87291c-0.77234,-0.17069 -1.30872,0.9277 -2.05788,1.18147c-0.01317,0.00446 -0.02639,0.00883 -0.03966,0.0131c0.28169,1.51555 0.32968,2.60013 -0.23971,4.12242l-0.5804,0.7019c0,0 -0.42123,0.49785 -0.91907,0.07662c-0.49785,-0.42122 -0.07662,-0.91907 -0.07662,-0.91907l0.44709,-0.51249c0.42084,-1.22944 0.31088,-2.07244 0.07548,-3.29185c-1.89252,0.0298 -3.88097,-0.54777 -3.27626,2.3321c0,0 0.03349,0.17063 -0.02222,0.35298c1.66588,1.80094 2.75902,4.56091 3.11643,6.38169c0,0 0.03922,0.19978 -0.03781,0.39801c0.07463,0.30582 0.16505,0.64108 0.23279,0.97758c0.92785,0.5045 2.19146,-0.21668 3.18514,-0.66202c2.51709,-1.1281 7.11537,-5.53723 4.23426,-8.43639c-0.43293,-0.14371 -0.8715,-0.42911 -1.30447,-0.76353c-0.18938,2.99763 -1.77517,5.42221 -4.04665,7.47266l-0.45717,0.27693c0,0 -0.56737,0.32153 -0.8889,-0.24583zM249.74523,125.37121c0.00046,-0.00068 0.00091,-0.00136 0.00136,-0.00203c-0.10217,-0.42081 -0.22833,-0.80744 -0.2652,-0.99529l-0.07178,-0.36567c0,0 -0.03623,-0.18457 0.02935,-0.37491c-0.53009,-2.02531 -1.64462,-4.18173 -3.20461,-5.55509c-0.50771,-0.44697 -2.04364,-1.14375 -2.72352,-0.75736c-0.59661,0.33907 -0.85739,1.09113 -1.46403,1.49139c-0.03284,0.03851 -0.08881,0.1083 -0.16141,0.19523c1.36192,-0.04138 2.46504,0.78974 3.68968,1.61249l0.32226,0.36264c0,0 0.39854,0.51619 -0.11765,0.91472c-0.51619,0.39854 -0.91472,-0.11765 -0.91472,-0.11765l-0.01722,-0.07707c-1.09632,-0.73654 -2.2419,-1.80857 -3.59258,-1.26116c0,0 -0.03024,0.01135 -0.07978,0.02226c0.34731,0.81744 0.18509,1.08558 -0.10591,1.85653c1.95113,0.37425 4.25546,0.92321 5.35714,2.53307l0.11635,0.35057c0,0 0.12562,0.63992 -0.51431,0.76554c-0.63992,0.12562 -0.76554,-0.51431 -0.76554,-0.51431l0.0685,0.10679c-0.78191,-1.32992 -3.20697,-1.74251 -4.8249,-2.02505c-0.19889,0.35135 -0.42656,0.68538 -0.68389,0.97827c-0.23284,0.26501 -1.28525,0.39683 -0.94267,0.48102c2.07731,0.51051 3.31421,2.34727 5.56529,2.77556c1.38798,0.11864 4.05881,0.04335 5.23245,-0.84488c0.16684,-0.12627 0.21907,-0.37769 0.20925,-0.67786c-0.11452,-0.09389 -0.44725,-0.42317 -0.14187,-0.87772zM248.6435,113.50542c1.2173,-0.06098 2.05473,0.53432 3.36519,0.09113c0.48817,-0.1651 2.04291,-1.29145 2.53061,-1.23829c1.37397,0.14976 3.20058,2.36616 4.6596,2.91801c3.71727,3.74555 -0.74315,9.09239 -4.40911,10.72929c-1.22569,0.54729 -2.46896,1.13386 -3.67706,0.85337c-0.62432,2.23189 -4.99293,2.36047 -6.84362,2.20504c-2.11472,-0.39676 -3.19021,-1.32843 -4.92,-2.4844c-0.69408,-0.46383 -1.64016,-0.53103 -1.76785,-1.70223c-0.04179,-0.38325 0.53722,-0.55326 0.81414,-0.82148c0.34846,-0.33751 0.72818,-0.76185 1.03834,-1.22729c0.00029,-0.04653 0.00509,-0.09646 0.0152,-0.15002c0.05037,-0.26666 0.19074,-0.4014 0.33749,-0.46783c0.13114,-0.27832 0.22624,-0.5635 0.26705,-0.84729c0.12902,-0.89713 -1.33808,-0.81709 -0.96133,-1.98521c0.0323,-0.10014 1.84773,-1.25279 2.09322,-1.54528c1.10905,-0.70219 1.3143,-1.83233 2.87071,-1.90777c0.85949,-0.04166 1.65376,0.21147 2.37446,0.66188c0.03202,-1.41475 0.62268,-3.00196 2.21297,-3.08163z" fill="#b452b6"/><path d="M252.70213,123.32045l0.45309,-0.27798c2.27148,-2.05046 3.82027,-4.39935 4.00966,-7.39699c0.43296,0.33442 0.93572,0.56235 1.36865,0.70606c2.88111,2.89916 -1.75014,7.37602 -4.26724,8.50412c-0.99368,0.44534 -2.27883,1.16249 -3.20668,0.65799c-0.06774,-0.3365 -0.16227,-0.67397 -0.2369,-0.97979c0.07702,-0.19823 0.03664,-0.39875 0.03664,-0.39875c-0.35741,-1.82079 -1.46854,-4.62927 -3.13442,-6.4302c0.05572,-0.18234 0.02293,-0.35519 0.02293,-0.35519c-0.60471,-2.87987 1.40153,-2.3247 3.29405,-2.35451c0.23541,1.21941 0.40895,2.11539 -0.01189,3.34483l-0.44475,0.50461c0,0 -0.42055,0.486 0.0773,0.90723c0.49785,0.42122 0.8324,-0.06971 0.8324,-0.06971l0.582,-0.71748c0.56939,-1.52229 0.5495,-2.63601 0.26781,-4.15155c0.01326,-0.00427 0.02683,-0.00875 0.04001,-0.01321c0.74916,-0.25376 1.30303,-1.35404 2.07536,-1.18334c0.43808,0.09682 0.9375,0.45185 1.45179,0.87588c0.19029,3.13706 -1.41222,5.63068 -3.66226,7.66136l-0.22781,0.10945c0,0 -0.52133,0.24783 -0.1998,0.81519c0.32153,0.56736 0.88006,0.24197 0.88006,0.24197z" data-paper-data="{&quot;noHover&quot;:false,&quot;origItem&quot;:[&quot;Path&quot;,{&quot;applyMatrix&quot;:true,&quot;segments&quot;:[[[505.99185,248.25291],[0.47434,1.42302],[-0.47434,-1.42302]],[506.94054,246.35555],[[507.50028,246.20662],[0,0],[5.97817,-3.58649]],[[519.03807,230.69422],[-0.9604,7.16484],[-0.97293,-1.18492]],[[516.17534,228.08615],[0.94587,0.41261],[-1.66758,-0.72745]],[[511.00713,229.84104],[1.80333,-0.24084],[-0.03171,0.00423]],[[510.91182,229.85303],[0.03183,-0.00376],[-0.03568,3.54548]],[[508.54433,239.05137],[1.9596,-3.18363],[0,0]],[506.92335,240.37845],[[504.815,240.14419],[0.93704,1.1713],[-0.93704,-1.1713]],[505.04926,238.03584],[[506.28543,237.0772],[0,0],[1.49457,-2.58847]],[[507.91425,229.68074],[-0.00894,2.85658],[-4.28473,-0.77122]],[[499.48631,233.49286],[-0.08893,-6.76795],[0,0]],[[499.27977,234.2797],[0.20654,-0.38687],[2.96207,4.80289]],[[503.48631,250.06429],[0,-4.26797],[0,0]],[[503.22464,250.94587],[0.26167,-0.41328],[0.03295,0.72332]],[[503.31694,253.25547],[-0.00381,-0.78952],[1.87069,1.54977]],[[510.7993,253.17243],[-2.4401,0.56491],[6.18103,-1.43098]],[[524.09404,236.00702],[5.21834,7.82004],[-0.91347,-0.51617]],[[521.48807,233.70575],[0.82906,0.94662],[-1.75556,6.68192]],[[509.04377,248.7791],[6.03532,-3.62161],[0,0]],[507.88922,249.2016]],&quot;closed&quot;:true}]}" fill="#b470b5"/><path d="M249.92491,126.27039c0.00982,0.30018 -0.04467,0.55516 -0.21151,0.68143c-1.17364,0.88823 -3.87471,0.98164 -5.26269,0.863c-2.25108,-0.42829 -3.53307,-2.29067 -5.61038,-2.80118c-0.34257,-0.08419 0.7096,-0.21655 0.94243,-0.48156c0.25733,-0.29289 0.56751,-0.65315 0.7664,-1.00449c1.61793,0.28254 3.97972,0.66619 4.76162,1.99612l-0.06838,-0.10685c0,0 0.12148,0.64247 0.7614,0.51685c0.63992,-0.12562 0.50653,-0.75862 0.50653,-0.75862l-0.04959,-0.2949c-1.10167,-1.60986 -3.48297,-2.19334 -5.4341,-2.56759c0.29101,-0.77095 0.46344,-1.06025 0.11614,-1.87769c0.04954,-0.01091 0.08036,-0.0229 0.08036,-0.0229c1.35067,-0.54741 2.55757,0.52194 3.65389,1.25848l0.01862,0.0784c0,0 0.32849,0.56548 0.84468,0.16694c0.51619,-0.39854 0.12447,-0.90438 0.12447,-0.90438l-0.31677,-0.35744c-1.22464,-0.82275 -2.28091,-1.64923 -3.64283,-1.60784c0.0726,-0.08693 0.09102,-0.23511 0.12386,-0.27362c0.60664,-0.40027 0.8826,-1.15603 1.47921,-1.4951c0.67988,-0.3864 2.23803,0.31501 2.74573,0.76198c1.55999,1.37336 2.69788,3.57486 3.22797,5.60017c-0.06557,0.19035 -0.02986,0.37773 -0.02986,0.37773l0.07117,0.36814c0.03687,0.18785 0.16104,0.58015 0.26321,1.00097c-0.00046,0.00067 -0.00092,0.00136 -0.00138,0.00204c-0.30538,0.45455 0.02527,0.78803 0.13979,0.88192z" data-paper-data="{&quot;noHover&quot;:false,&quot;origItem&quot;:[&quot;Path&quot;,{&quot;applyMatrix&quot;:true,&quot;segments&quot;:[[[500.35422,252.4322],[-0.89064,0.89064],[0.00133,-0.00133]],[[500.3582,252.42822],[-0.00133,0.00132],[-0.04416,-0.99507]],[[500.20059,250.06429],[0,0.44033],[0,0]],[500.20059,249.20714],[[500.43293,248.37394],[-0.23234,0.40057],[-0.29913,-4.8061]],[[495.66114,234.41598],[2.91252,3.79091],[-0.94789,-1.23377]],[[489.84955,231.49992],[1.70572,-0.5709],[-1.4968,0.50098]],[[485.88439,234.21744],[1.54655,-0.63465],[-0.09118,0.07238]],[[485.43357,234.58657],[0.20238,-0.16405],[3.09227,0.51]],[[493.04697,239.86077],[-2.39957,-2.39957],[0,0]],[493.61366,240.82204],[[492.94284,242.8345],[1.34164,-0.67082],[-1.34164,0.67082]],[490.93038,242.16368],[[490.92565,241.98209],[0,0],[-2.14814,-2.14814]],[[483.37576,237.54388],[3.29108,-0.63711],[0,0]],[[483.18582,237.55877],[0.11666,-0.00268],[0.42172,1.99888]],[[482.12423,241.70213],[0.99839,-1.61114],[4.238,1.70915]],[[493.09331,249.79291],[-1.77329,-4.12164],[0,0]],[493.20059,250.63571],[[491.70059,252.13571],[1.5,0],[-1.5,0]],[490.20059,250.63571],[[490.30788,250.90709],[0,0],[-1.17558,-3.34814]],[[480.31501,244.19874],[3.52658,1.35454],[-0.60456,0.70489]],[[478.338,246.10374],[0.71057,-0.54705],[-0.64294,0.49499]],[[475.99722,246.77177],[-0.73591,-0.3418],[4.46243,2.0726]],[[487.32867,255.50208],[-4.89106,-1.96403],[3.08019,0.88273]],[[499.51294,255.91339],[-3.04251,1.4848],[0.43251,-0.21107]],[[500.28556,254.47612],[-0.11084,0.68187],[-0.21688,-0.26265]]],&quot;closed&quot;:true}]}" fill="#b470b5"/><path d="M252.81213,123.81387c0.00871,-0.01319 0.01738,-0.02635 0.02601,-0.03948c-0.01095,0.01485 -0.02189,0.02973 -0.03282,0.04462zM254.71148,121.3849c0.61336,0.22152 0.39184,0.83488 0.39184,0.83488c-0.2407,0.66249 -0.52435,1.21006 -0.86889,1.76664c0.92423,-0.8362 1.95963,-2.34762 1.10932,-3.38468c-0.22876,-0.27901 -0.60131,-0.17806 -0.99417,-0.00881c0.04906,0.02539 0.0993,0.05892 0.15035,0.10211c0.28307,0.23951 0.26901,0.50379 0.20419,0.68724c0.00245,0.00086 0.00491,0.00174 0.00737,0.00263zM250.97713,124.54259l0.2353,-0.72526c0.68065,-1.01314 1.41376,-1.91316 2.1946,-2.83983c-1.51154,0.41086 -2.09355,2.11323 -2.60441,3.52983c0.01678,0.04018 0.03309,0.08061 0.04889,0.12129c0,0 0.22911,0.61057 -0.38146,0.83968c-0.0331,0.01242 -0.06507,0.02237 -0.09595,0.03008c-0.13004,0.14918 -0.36457,0.30521 -0.72535,0.15515c-0.02815,-0.01171 -0.05443,-0.02418 -0.07896,-0.03733c-0.03787,0.05577 -0.07973,0.10017 -0.1238,0.13526c0.0844,0.07866 0.15414,0.19467 0.18753,0.36479c0.12562,0.63992 -0.51431,0.76554 -0.51431,0.76554l-0.71636,0.13158c-2.10281,0.04244 -4.05722,-0.93515 -5.94171,-1.94939l-0.90959,-0.1514c-0.267,-0.03805 -0.49298,-0.24057 -0.54787,-0.52017c-0.06938,-0.35342 0.16089,-0.69616 0.51431,-0.76554l0.73134,-0.14356c1.33256,-0.21379 1.44168,-1.3032 2.72045,-1.79346c1.88465,-0.72255 3.8161,0.02816 5.01864,1.47428c0.83692,-1.8582 1.7915,-3.20926 4.26079,-3.68199c0.60938,-0.11666 1.35757,-0.3634 1.93401,0.12142c2.10802,1.77298 -0.44597,5.07041 -1.95292,5.9991c-1.19702,0.45427 -2.39632,0.90246 -3.59502,1.35226l0.36759,-0.13778c0,0 -0.0832,0.64681 -0.73,0.56362c-0.64681,-0.08319 -0.56361,-0.73 -0.56361,-0.73l0.46781,-0.91697c0.38041,-0.14274 0.76072,-0.28573 1.14107,-0.42862c-0.49277,-0.21384 -0.34101,-0.76256 -0.34101,-0.76256zM248.26878,125.58819c-0.85355,-0.58321 -1.77784,-0.84464 -2.80587,-0.92577c0,0 -0.64981,-0.05501 -0.59479,-0.70483c0.00803,-0.09483 0.02873,-0.17465 0.05822,-0.24182c-0.00854,-0.02789 -0.01597,-0.05754 -0.02215,-0.08903c-0.00926,-0.04718 -0.01436,-0.09155 -0.01586,-0.13329c-0.32138,0.22542 -0.6521,0.47433 -1.01838,0.697c1.43287,0.41307 3.29118,1.56699 4.4955,1.51916l0.11992,-0.0257zM246.39509,122.80133c0.36725,0.01957 0.7238,0.08576 1.07164,0.18888c-0.39652,-0.17215 -0.74702,-0.22237 -1.07164,-0.18888z" fill="#b53f33"/><path d="M254.68998,121.33431c0.06482,-0.18345 0.10719,-0.35182 -0.17588,-0.59133c-0.05105,-0.04319 -0.13282,-0.17156 -0.18188,-0.19695c0.39286,-0.16925 0.79476,-0.27184 1.02353,0.00716c0.85031,1.03707 -0.21568,2.64345 -1.1399,3.47964c0.34455,-0.55658 0.59695,-1.15465 0.83765,-1.81714c0,0 0.28513,-0.5612 -0.32823,-0.78273c-0.00247,-0.00089 -0.03283,-0.09779 -0.03528,-0.09866z" data-paper-data="{&quot;noHover&quot;:false,&quot;origItem&quot;:[&quot;Path&quot;,{&quot;applyMatrix&quot;:true,&quot;segments&quot;:[[[254.71148,121.3849],[-0.00247,-0.00089],[0.61336,0.22152]],[[255.10332,122.21978],[0,0],[-0.2407,0.66249]],[[254.23442,123.98642],[0.34455,-0.55658],[0.92423,-0.8362]],[[255.34374,120.60174],[0.85031,1.03707],[-0.22876,-0.27901]],[[254.34957,120.59293],[0.39286,-0.16925],[0.04906,0.02539]],[[254.49992,120.69504],[-0.05105,-0.04319],[0.28307,0.23951]],[[254.70411,121.38227],[0.06482,-0.18345],[0.00245,0.00086]]],&quot;closed&quot;:true}]}" fill="#ff8b66"/><path d="M248.53064,125.70514l-0.12058,0.02706c-1.20432,0.04783 -3.15647,-1.13746 -4.58934,-1.55053c0.36627,-0.22267 0.70831,-0.4954 1.02969,-0.72082c0.0015,0.04174 0.0842,0.14912 0.09346,0.1963c0.00618,0.0315 0.01472,0.05964 0.02326,0.08753c-0.02949,0.06717 -0.04613,0.14017 -0.05416,0.235c-0.05502,0.64981 0.59976,0.67855 0.59976,0.67855c1.02803,0.08112 1.85727,0.32543 2.71082,0.90864z" data-paper-data="{&quot;noHover&quot;:false,&quot;origItem&quot;:[&quot;Path&quot;,{&quot;applyMatrix&quot;:true,&quot;segments&quot;:[[[248.26878,125.58819],[0,0],[-0.85355,-0.58321]],[[245.46291,124.66242],[1.02803,0.08112],[0,0]],[[244.86811,123.9576],[-0.05502,0.64981],[0.00803,-0.09483]],[[244.92633,123.71578],[-0.02949,0.06717],[-0.00854,-0.02789]],[[244.90418,123.62674],[0.00618,0.0315],[-0.00926,-0.04718]],[[244.88832,123.49345],[0.0015,0.04174],[-0.32138,0.22542]],[[243.86995,124.19045],[0.36627,-0.22267],[1.43287,0.41307]],[[248.36545,125.70962],[-1.20432,0.04783],[0,0]],[248.48537,125.68392]],&quot;closed&quot;:true}]}" fill="#ff8b66"/><path d="M228.12596,163.58398c0.41602,-0.62404 1.04006,-0.20802 1.04006,-0.20802l0.76716,0.51179c2.45532,1.84612 3.79493,4.0145 3.81682,7.11226c0,0 0,0.54559 -0.46535,0.7061c4.13479,2.17713 8.31388,4.74091 8.46535,9.2939c0,0 0,0.75 -0.75,0.75c-0.75,0 -0.75,-0.75 -0.75,-0.75c0.08623,-1.42726 -1.34814,-3.03718 -2.28033,-3.96967c-0.48818,-0.48834 -0.99648,-0.93158 -1.5203,-1.3413c0.07193,0.14808 0.09579,0.34252 -0.00302,0.58951c-0.27855,0.69636 -0.97491,0.41781 -0.97491,0.41781c-3.60376,-1.48868 -7.70872,1.05364 -11.47145,1.05364h-1c0,0 -0.75,0 -0.75,-0.75c0,-0.75 0.75,-0.75 0.75,-0.75h1c4.03644,0 7.89239,-2.43429 11.84402,-1.01541c-2.5303,-1.82498 -5.36819,-2.99854 -8.02494,-4.74436c-0.11328,0.1204 -0.23368,0.18059 -0.23368,0.18059c-2.16953,1.08396 -4.15717,1.525 -6.34824,2.29069l-0.73717,0.03849c0,0 -0.75,0 -0.75,-0.75c0,-0.75 0.75,-0.75 0.75,-0.75l0.26283,0.03849c2.02051,-0.64971 3.74666,-1.076 5.68475,-1.98322c-1.5615,-0.85496 -4.32778,-3.40313 -5.94758,-3.30527l-1.03033,-0.71967c0,0 -0.53033,-0.53033 0,-1.06066c0.53033,-0.53033 1.06066,0 1.06066,0l-0.03033,0.28033c2.27797,0.07578 4.85836,2.58752 6.8943,3.61201c1.31521,0.98207 3.06039,1.87448 4.87981,2.81723c-0.0241,-0.10342 -0.0241,-0.17924 -0.0241,-0.17924c0.0222,-2.59007 -1.14014,-4.3598 -3.18318,-5.88774l-0.73284,-0.48821c0,0 -0.62404,-0.41602 -0.20802,-1.04006z" fill="#3fab3d"/><path d="M262.41603,171.12596c0.62404,0.41602 0.20801,1.04006 0.20801,1.04006l-0.62769,0.89624c-4.17724,2.18475 -8.40557,1.68774 -12.99635,1.68774c0,0 -0.73729,0 -0.74984,-0.73102c-0.61265,0.39503 -1.20286,0.822 -1.75876,1.29761c-1.27497,1.09082 -2.78525,2.37457 -2.7414,4.18341c0,0 0,0.75 -0.75,0.75c-0.75,0 -0.75,-0.75 -0.75,-0.75c0.05052,-2.95182 1.9793,-4.93001 4.4903,-6.53448c0.02452,-0.24712 0.17405,-0.43404 0.17405,-0.43404c1.01391,-1.20172 0.43602,-1.47099 1.19766,-2.67578c1.35235,-2.13921 3.08698,-4.54485 5.22197,-5.97974l0.75,-0.5c0,0 0.62404,-0.41602 1.04006,0.20802c0.41602,0.62404 -0.20802,1.04006 -0.20802,1.04006l-0.75,0.5c-2.43586,1.60843 -3.4903,4.06978 -4.78734,6.349c2.84179,-1.46789 5.84656,-2.74941 7.59099,-4.50337c1.28566,-1.27478 2.00353,-2.74641 2.56882,-4.45684l0.43118,-0.54316c0,0 0.53033,-0.53033 1.06066,0c0.53033,0.53033 0,1.06066 0,1.06066l-0.06882,-0.04316c-0.64916,1.93306 -1.48341,3.58453 -2.93118,5.04316c-2.38238,2.37072 -5.59267,3.58199 -8.50326,5.22203c3.99195,0.03422 7.78881,0.40481 11.47658,-1.31462l0.37231,-0.60376c0,0 0.41602,-0.62404 1.04006,-0.20802z" fill="#3fab3d"/></g></g></svg>